<?xml version="1.0" encoding="UTF-8"?>
<svg width="1278px" height="345px" viewBox="0 0 1278 345" version="1.1" xmlns="http://www.w3.org/2000/svg" xmlns:xlink="http://www.w3.org/1999/xlink">
    <!-- Generator: Sketch 51.3 (57544) - http://www.bohemiancoding.com/sketch -->
    <title>Group</title>
    <desc>Created with Sketch.</desc>
    <defs></defs>
    <g id="DESKTOP" stroke="none" stroke-width="1" fill="none" fill-rule="evenodd">
        <g id="STARTSEITE" transform="translate(-83.000000, -29.000000)" fill="#0A5640">
            <g id="Group" transform="translate(80.000000, -10.000000)">
                <path d="M43.568,334.723 L42.401,334.723 C16.338,334.723 3.89,312.55 3.89,286.876 L3.89,90.042 C3.89,63.201 17.116,39.861 56.016,39.861 L62.629,39.861 C101.918,39.861 113.199,62.812 113.199,86.152 L113.199,151.115 L65.741,151.115 L65.741,88.097 C65.741,83.429 64.574,80.706 59.906,80.706 C56.405,80.706 54.46,83.04 54.46,88.097 L54.46,285.709 C54.46,291.544 56.794,294.656 61.462,294.656 C66.13,294.656 68.464,291.544 68.464,285.709 L68.464,199.351 L58.35,199.351 L58.35,161.618 L115.144,161.618 L115.144,332 L82.079,332 C80.912,327.721 78.578,317.218 77.022,313.717 C70.409,324.22 60.295,334.723 43.568,334.723 Z M122.924,42.584 L206.17,42.584 L206.17,86.93 L171.16,86.93 L171.16,157.339 L200.724,157.339 L200.724,203.241 L171.16,203.241 L171.16,286.876 L207.337,286.876 L207.337,332 L122.924,332 L122.924,42.584 Z M214.339,332 L214.339,42.584 L270.744,42.584 L279.302,183.013 L287.86,42.584 L342.709,42.584 L342.709,332 L301.475,332 L301.475,170.176 L287.082,332 L269.577,332 L254.795,170.176 L254.795,332 L214.339,332 Z M350.489,42.584 L433.735,42.584 L433.735,86.93 L398.725,86.93 L398.725,157.339 L428.289,157.339 L428.289,203.241 L398.725,203.241 L398.725,286.876 L434.902,286.876 L434.902,332 L350.489,332 L350.489,42.584 Z M491.307,42.584 L491.307,332 L441.904,332 L441.904,42.584 L491.307,42.584 Z M499.087,42.584 L548.879,42.584 L567.94,199.351 L567.551,42.584 L608.396,42.584 L608.396,332 L562.883,332 L539.932,158.506 L540.321,332 L499.087,332 L499.087,42.584 Z M616.176,332 L616.176,42.584 L686.585,42.584 C707.98,42.584 724.707,53.476 724.707,84.207 L724.707,288.043 C724.707,318.774 709.147,332 687.363,332 L616.176,332 Z M664.412,82.262 L664.412,291.155 L669.08,291.155 C673.748,291.155 674.915,288.043 674.915,281.43 L674.915,91.209 C674.915,85.374 673.748,82.262 669.08,82.262 L664.412,82.262 Z M732.487,42.584 L815.733,42.584 L815.733,86.93 L780.723,86.93 L780.723,157.339 L810.287,157.339 L810.287,203.241 L780.723,203.241 L780.723,286.876 L816.9,286.876 L816.9,332 L732.487,332 L732.487,42.584 Z M823.902,332 L823.902,42.584 L873.305,42.584 L873.305,155.005 L883.808,155.005 L883.808,42.584 L932.822,42.584 L932.822,332 L883.808,332 L883.808,205.964 L873.305,205.964 L873.305,332 L823.902,332 Z M995.84,237.473 L990.005,127.386 L984.17,237.473 L995.84,237.473 Z M1000.897,332 L998.174,279.874 L981.447,279.874 L978.724,332 L936.323,332 L960.441,42.584 L1022.681,42.584 L1048.744,332 L1000.897,332 Z M1111.762,335.112 L1103.982,335.112 C1066.249,335.112 1052.245,312.939 1052.245,287.265 L1052.245,42.584 L1102.815,42.584 L1102.815,281.43 C1102.815,286.487 1104.371,288.821 1107.872,288.821 C1111.373,288.821 1113.318,286.487 1113.318,281.43 L1113.318,42.584 L1163.499,42.584 L1163.499,287.265 C1163.499,312.55 1147.161,335.112 1111.762,335.112 Z M1230.018,334.723 L1218.737,334.723 C1186.45,334.723 1170.501,319.941 1170.501,289.988 L1170.501,214.133 L1218.737,214.133 L1218.737,286.487 C1218.737,291.544 1220.293,294.267 1223.794,294.267 C1227.295,294.267 1229.24,291.544 1229.24,286.098 L1229.24,229.693 C1229.24,220.357 1228.073,216.467 1220.682,209.854 L1195.397,188.07 C1178.67,174.066 1171.668,158.117 1171.668,136.333 L1171.668,84.985 C1171.668,58.144 1185.672,39.861 1221.071,39.861 L1232.352,39.861 C1267.751,39.861 1279.032,57.755 1279.032,81.095 L1279.032,144.891 L1231.574,144.891 L1231.574,83.429 C1231.574,79.15 1230.018,77.205 1226.517,77.205 C1223.016,77.205 1221.46,79.15 1221.46,83.429 L1221.46,132.832 C1221.46,140.612 1223.016,143.335 1229.24,149.17 L1254.136,170.954 C1273.586,187.292 1280.977,200.129 1280.977,225.803 L1280.977,283.375 C1280.977,314.495 1265.806,334.723 1230.018,334.723 Z" id="GEMEINDEHAUS"></path>
                <path d="M28.772,383.546 L27.05,383.546 C8.948,383.546 6.134,373.424 6.134,367.88 L6.134,366.662 C6.134,360.992 8.57,351.206 27.05,351.206 L28.772,351.206 C46.874,351.206 49.688,359.858 49.688,363.512 L49.688,363.974 L39.314,363.974 C39.062,363.134 37.802,358.766 27.89,358.766 C18.524,358.766 16.382,362.966 16.382,366.872 L16.382,367.376 C16.382,371.072 18.86,375.944 27.974,375.944 C38.096,375.944 39.104,371.114 39.356,370.4 L49.73,370.4 L49.73,370.862 C49.73,374.81 46.622,383.546 28.772,383.546 Z M64.018,358.85 L64.018,364.982 L78.844,364.982 C81.658,364.982 82.792,363.638 82.792,361.916 L82.792,361.874 C82.792,360.236 81.7,358.85 78.844,358.85 L64.018,358.85 Z M64.018,371.912 L64.018,383 L54.232,383 L54.232,351.752 L79.432,351.752 C89.848,351.752 92.998,355.364 92.998,359.858 L92.998,360.362 C92.998,364.856 89.26,366.536 87.202,367.208 C90.394,368.132 93.124,370.358 93.124,374.39 L93.124,378.968 C93.124,381.488 93.418,382.286 93.712,382.79 L93.712,383 L83.758,383 C83.464,382.622 83.296,382.16 83.296,381.026 L83.296,377.414 C83.296,373.592 81.616,371.912 76.786,371.912 L64.018,371.912 Z M98.088,351.752 L131.016,351.752 L131.016,358.85 L107.748,358.85 L107.748,363.47 L130.47,363.47 L130.47,370.61 L107.748,370.61 L107.748,375.734 L131.436,375.734 L131.436,383 L98.088,383 L98.088,351.752 Z M161.642,370.232 L155.594,358.514 L149.798,370.232 L161.642,370.232 Z M168.194,383 L165.254,377.288 L146.312,377.288 L143.498,383 L133.544,383 L149.336,351.752 L162.02,351.752 L178.736,383 L168.194,383 Z M187.774,383 L187.774,359.144 L174.334,359.144 L174.334,351.752 L211.126,351.752 L211.126,359.144 L197.644,359.144 L197.644,383 L187.774,383 Z M225.582,351.752 L225.582,383 L215.796,383 L215.796,351.752 L225.582,351.752 Z M257.006,383 L244.826,383 L228.572,351.752 L239.66,351.752 L251.168,374.726 L261.962,351.752 L272.126,351.752 L257.006,383 Z M275.116,351.752 L308.044,351.752 L308.044,358.85 L284.776,358.85 L284.776,363.47 L307.498,363.47 L307.498,370.61 L284.776,370.61 L284.776,375.734 L308.464,375.734 L308.464,383 L275.116,383 L275.116,351.752 Z M348.422,383 L337.628,383 L324.776,351.752 L335.444,351.752 L343.508,373.256 L350.48,351.752 L360.896,351.752 L368.036,372.626 L375.932,351.752 L385.55,351.752 L372.908,383 L363.038,383 L355.52,362.084 L348.422,383 Z M407.818,351.206 L409.624,351.206 C429.28,351.206 431.59,361.076 431.59,366.662 L431.59,367.922 C431.59,373.424 429.322,383.546 409.624,383.546 L407.818,383.546 C388.036,383.546 385.81,373.424 385.81,367.922 L385.81,366.662 C385.81,361.076 388.036,351.206 407.818,351.206 Z M421.342,367.544 L421.342,366.956 C421.342,363.386 419.284,358.766 408.7,358.766 C397.948,358.766 396.058,363.386 396.058,366.956 L396.058,367.46 C396.058,371.03 398.116,375.944 408.7,375.944 C419.2,375.944 421.342,371.156 421.342,367.544 Z M446.004,358.85 L446.004,364.982 L460.83,364.982 C463.644,364.982 464.778,363.638 464.778,361.916 L464.778,361.874 C464.778,360.236 463.686,358.85 460.83,358.85 L446.004,358.85 Z M446.004,371.912 L446.004,383 L436.218,383 L436.218,351.752 L461.418,351.752 C471.834,351.752 474.984,355.364 474.984,359.858 L474.984,360.362 C474.984,364.856 471.246,366.536 469.188,367.208 C472.38,368.132 475.11,370.358 475.11,374.39 L475.11,378.968 C475.11,381.488 475.404,382.286 475.698,382.79 L475.698,383 L465.744,383 C465.45,382.622 465.282,382.16 465.282,381.026 L465.282,377.414 C465.282,373.592 463.602,371.912 458.772,371.912 L446.004,371.912 Z M489.86,383 L480.074,383 L480.074,351.752 L489.86,351.752 L489.86,364.772 L505.862,351.752 L518.294,351.752 L500.318,366.032 L519.134,383 L506.366,383 L489.86,368.258 L489.86,383 Z M538.882,383.546 L535.984,383.546 C519.604,383.546 517.714,376.49 517.714,372.374 L517.714,371.912 L527.92,371.912 C528.046,373.802 529.138,376.868 537.202,376.868 L537.79,376.868 C546.022,376.868 546.946,375.23 546.946,373.55 C546.946,371.744 545.98,370.61 538.756,370.4 L533.38,370.274 C521.704,369.938 518.134,365.99 518.134,361.118 L518.134,360.74 C518.134,356.078 520.906,351.206 535.144,351.206 L538.042,351.206 C552.826,351.206 556.186,356.372 556.186,361.076 L556.186,361.496 L546.022,361.496 C545.812,360.32 545.182,357.758 536.992,357.758 L536.32,357.758 C528.76,357.758 528.214,359.102 528.214,360.446 C528.214,361.79 529.054,363.008 535.438,363.134 L540.688,363.218 C552.448,363.428 557.194,366.284 557.194,372.5 L557.194,373.088 C557.194,378.254 554.59,383.546 538.882,383.546 Z M585.048,372.584 L571.398,372.584 L571.398,383 L561.612,383 L561.612,351.752 L585.048,351.752 C596.304,351.752 599.622,356.204 599.622,361.916 L599.622,362.336 C599.622,367.922 596.22,372.584 585.048,372.584 Z M571.398,358.85 L571.398,365.57 L584.88,365.57 C587.946,365.57 589.416,364.436 589.416,362.294 L589.416,362.168 C589.416,360.026 588.03,358.85 584.88,358.85 L571.398,358.85 Z M623.948,370.232 L617.9,358.514 L612.104,370.232 L623.948,370.232 Z M630.5,383 L627.56,377.288 L608.618,377.288 L605.804,383 L595.85,383 L611.642,351.752 L624.326,351.752 L641.042,383 L630.5,383 Z M662.722,383.546 L661,383.546 C642.898,383.546 640.084,373.424 640.084,367.88 L640.084,366.662 C640.084,360.992 642.52,351.206 661,351.206 L662.722,351.206 C680.824,351.206 683.638,359.858 683.638,363.512 L683.638,363.974 L673.264,363.974 C673.012,363.134 671.752,358.766 661.84,358.766 C652.474,358.766 650.332,362.966 650.332,366.872 L650.332,367.376 C650.332,371.072 652.81,375.944 661.924,375.944 C672.046,375.944 673.054,371.114 673.306,370.4 L683.68,370.4 L683.68,370.862 C683.68,374.81 680.572,383.546 662.722,383.546 Z M688.182,351.752 L721.11,351.752 L721.11,358.85 L697.842,358.85 L697.842,363.47 L720.564,363.47 L720.564,370.61 L697.842,370.61 L697.842,375.734 L721.53,375.734 L721.53,383 L688.182,383 L688.182,351.752 Z M740.74,383 L740.74,351.752 L767.494,351.752 C776.44,351.752 778.918,355.196 778.918,358.892 L778.918,359.48 C778.918,363.554 775.474,365.108 773.962,365.57 C776.104,366.116 780.682,367.922 780.682,373.424 L780.682,374.012 C780.682,378.926 777.868,383 767.746,383 L740.74,383 Z M765.814,358.346 L750.526,358.346 L750.526,363.428 L765.814,363.428 C768.544,363.428 769.216,362.168 769.216,360.908 L769.216,360.824 C769.216,359.522 768.544,358.346 765.814,358.346 Z M766.654,370.064 L750.526,370.064 L750.526,376.196 L766.654,376.196 C769.888,376.196 770.518,374.39 770.518,373.13 L770.518,372.962 C770.518,371.618 769.888,370.064 766.654,370.064 Z M795.768,383 L795.768,370.904 L779.052,351.752 L791.19,351.752 L800.892,363.26 L810.762,351.752 L821.808,351.752 L805.554,370.904 L805.554,383 L795.768,383 Z M848.200001,383 L838.414001,383 L838.414001,351.752 L848.200001,351.752 L848.200001,364.772 L864.202001,351.752 L876.634001,351.752 L858.658001,366.032 L877.474001,383 L864.706001,383 L848.200001,368.258 L848.200001,383 Z M905.832001,370.232 L899.784001,358.514 L893.988001,370.232 L905.832001,370.232 Z M912.384001,383 L909.444001,377.288 L890.502001,377.288 L887.688001,383 L877.734001,383 L893.526001,351.752 L906.210001,351.752 L922.926001,383 L912.384001,383 Z M935.534001,358.85 L935.534001,364.982 L950.360001,364.982 C953.174001,364.982 954.308001,363.638 954.308001,361.916 L954.308001,361.874 C954.308001,360.236 953.216001,358.85 950.360001,358.85 L935.534001,358.85 Z M935.534001,371.912 L935.534001,383 L925.748001,383 L925.748001,351.752 L950.948001,351.752 C961.364001,351.752 964.514001,355.364 964.514001,359.858 L964.514001,360.362 C964.514001,364.856 960.776001,366.536 958.718001,367.208 C961.910001,368.132 964.640001,370.358 964.640001,374.39 L964.640001,378.968 C964.640001,381.488 964.934001,382.286 965.228001,382.79 L965.228001,383 L955.274001,383 C954.980001,382.622 954.812001,382.16 954.812001,381.026 L954.812001,377.414 C954.812001,373.592 953.132001,371.912 948.302001,371.912 L935.534001,371.912 Z M969.604001,351.752 L979.390001,351.752 L979.390001,375.23 L1001.104,375.23 L1001.104,383 L969.604001,383 L969.604001,351.752 Z M1044.884,370.232 L1038.836,358.514 L1033.04,370.232 L1044.884,370.232 Z M1051.436,383 L1048.496,377.288 L1029.554,377.288 L1026.74,383 L1016.786,383 L1032.578,351.752 L1045.262,351.752 L1061.978,383 L1051.436,383 Z M1064.8,351.752 L1075.72,351.752 L1095.67,371.408 L1095.67,351.752 L1105.33,351.752 L1105.33,383 L1095.67,383 L1074.46,362.294 L1074.46,383 L1064.8,383 L1064.8,351.752 Z M1111.218,383 L1111.218,351.752 L1131.924,351.752 C1150.026,351.752 1153.974,359.522 1153.974,366.536 L1153.974,367.796 C1153.974,374.516 1150.236,383 1131.966,383 L1111.218,383 Z M1121.004,359.144 L1121.004,375.482 L1131.168,375.482 C1142.256,375.482 1143.726,370.61 1143.726,367.418 L1143.726,367.166 C1143.726,363.974 1142.424,359.144 1131.168,359.144 L1121.004,359.144 Z M1158.434,351.752 L1191.362,351.752 L1191.362,358.85 L1168.094,358.85 L1168.094,363.47 L1190.816,363.47 L1190.816,370.61 L1168.094,370.61 L1168.094,375.734 L1191.782,375.734 L1191.782,383 L1158.434,383 L1158.434,351.752 Z M1206.742,358.85 L1206.742,364.982 L1221.568,364.982 C1224.382,364.982 1225.516,363.638 1225.516,361.916 L1225.516,361.874 C1225.516,360.236 1224.424,358.85 1221.568,358.85 L1206.742,358.85 Z M1206.742,371.912 L1206.742,383 L1196.956,383 L1196.956,351.752 L1222.156,351.752 C1232.572,351.752 1235.722,355.364 1235.722,359.858 L1235.722,360.362 C1235.722,364.856 1231.984,366.536 1229.926,367.208 C1233.118,368.132 1235.848,370.358 1235.848,374.39 L1235.848,378.968 C1235.848,381.488 1236.142,382.286 1236.436,382.79 L1236.436,383 L1226.482,383 C1226.188,382.622 1226.02,382.16 1226.02,381.026 L1226.02,377.414 C1226.02,373.592 1224.34,371.912 1219.51,371.912 L1206.742,371.912 Z M1260.384,383.546 L1257.486,383.546 C1241.106,383.546 1239.216,376.49 1239.216,372.374 L1239.216,371.912 L1249.422,371.912 C1249.548,373.802 1250.64,376.868 1258.704,376.868 L1259.292,376.868 C1267.524,376.868 1268.448,375.23 1268.448,373.55 C1268.448,371.744 1267.482,370.61 1260.258,370.4 L1254.882,370.274 C1243.206,369.938 1239.636,365.99 1239.636,361.118 L1239.636,360.74 C1239.636,356.078 1242.408,351.206 1256.646,351.206 L1259.544,351.206 C1274.328,351.206 1277.688,356.372 1277.688,361.076 L1277.688,361.496 L1267.524,361.496 C1267.314,360.32 1266.684,357.758 1258.494,357.758 L1257.822,357.758 C1250.262,357.758 1249.716,359.102 1249.716,360.446 C1249.716,361.79 1250.556,363.008 1256.94,363.134 L1262.19,363.218 C1273.95,363.428 1278.696,366.284 1278.696,372.5 L1278.696,373.088 C1278.696,378.254 1276.092,383.546 1260.384,383.546 Z" id="Creative-Workspace-b"></path>
            </g>
        </g>
    </g>
</svg>