<?xml version="1.0" encoding="UTF-8"?>
<svg width="860px" height="600px" viewBox="0 0 860 600" version="1.1" xmlns="http://www.w3.org/2000/svg" xmlns:xlink="http://www.w3.org/1999/xlink">
    <!-- Generator: Sketch 51.3 (57544) - http://www.bohemiancoding.com/sketch -->
    <title>PRICES_BACK</title>
    <desc>Created with Sketch.</desc>
    <defs></defs>
    <g id="PRICES_BACK" stroke="none" stroke-width="1" fill="none" fill-rule="evenodd">
        <rect fill="#E9AFB8" x="0" y="0" width="860" height="600"></rect>
        <path d="M42.716,53.884 L39.52,53.884 C11.98,53.884 9.396,40.216 9.396,35.048 L9.396,34.504 L26.056,34.504 C26.26,35.796 27.008,42.188 40.948,42.188 C55.364,42.188 56.18,38.584 56.18,36.544 C56.18,34.572 55.092,32.6 49.108,32.6 L31.224,32.6 L31.224,20.836 L48.292,20.836 C53.936,20.836 54.888,19.204 54.888,17.504 C54.888,15.668 53.8,13.084 39.928,13.084 C26.396,13.084 26.26,17.776 26.056,18.864 L9.532,18.864 L9.532,18.184 C9.532,13.56 11.572,1.524 38.432,1.524 L41.288,1.524 C68.352,1.524 71.48,9.14 71.48,14.58 L71.48,14.988 C71.48,20.292 66.652,23.012 63.388,23.76 C67.4,24.848 73.044,28.316 73.044,36.136 L73.044,36.612 C73.044,45.112 67.672,53.884 42.716,53.884 Z M108.608,53.884 L105.412,53.884 C79.98,53.884 76.716,42.596 76.716,37.632 L76.716,37.156 L93.444,37.156 C93.648,37.904 94.736,42.188 106.976,42.188 C118.604,42.188 120.032,38.788 120.032,36 L120.032,35.592 C120.032,32.804 118.604,29.404 106.976,29.404 C94.804,29.404 93.376,33.008 93.24,33.484 L77.804,33.484 L77.804,2.408 L133.088,2.408 L133.088,14.172 L93.376,14.172 L93.376,23.216 C94.328,22.468 99.02,18.524 111.396,18.524 L112.008,18.524 C132.068,18.524 136.624,26.276 136.624,35.524 L136.624,35.932 C136.624,44.16 131.728,53.884 108.608,53.884 Z M211.152,26.548 L211.152,28.588 C211.152,37.428 207.072,53.884 177.016,53.884 L174.024,53.884 C144.104,53.884 139.888,37.496 139.888,28.588 L139.888,26.548 C139.888,17.572 144.104,1.524 174.024,1.524 L177.016,1.524 C207.004,1.524 211.152,17.572 211.152,26.548 Z M194.56,27.976 L194.56,27.024 C194.56,21.312 191.024,13.832 175.52,13.832 C159.744,13.832 156.48,21.312 156.48,27.024 L156.48,27.84 C156.48,33.552 160.084,41.508 175.52,41.508 C190.956,41.508 194.56,33.756 194.56,27.976 Z M255.76,53.884 L252.836,53.884 C232.096,53.884 223.868,44.024 221.352,35.184 L213.736,35.184 L213.736,29.268 L220.4,29.268 L220.4,25.528 L213.736,25.528 L213.736,19.544 L221.42,19.544 C223.936,10.84 231.892,1.524 252.836,1.524 L255.76,1.524 C282.756,1.524 287.992,15.396 287.992,21.448 L287.992,22.196 L271.128,22.196 C270.856,20.836 268.476,13.696 254.128,13.696 C245.492,13.696 241.004,16.076 238.76,19.544 L259.636,19.544 L259.636,25.528 L236.992,25.528 C236.924,26.004 236.924,26.412 236.924,26.888 L236.924,27.704 C236.924,28.248 236.924,28.724 236.992,29.268 L259.636,29.268 L259.636,35.184 L238.964,35.184 C241.344,38.924 245.9,41.644 254.264,41.644 C268.816,41.644 270.856,33.892 271.196,32.6 L288.06,32.6 L288.06,33.348 C288.06,39.808 282.892,53.884 255.76,53.884 Z" id="350€" fill="#0A5640"></path>
        <path d="M42.716,113.884 L39.52,113.884 C11.98,113.884 9.396,100.216 9.396,95.048 L9.396,94.504 L26.056,94.504 C26.26,95.796 27.008,102.188 40.948,102.188 C55.364,102.188 56.18,98.584 56.18,96.544 C56.18,94.572 55.092,92.6 49.108,92.6 L31.224,92.6 L31.224,80.836 L48.292,80.836 C53.936,80.836 54.888,79.204 54.888,77.504 C54.888,75.668 53.8,73.084 39.928,73.084 C26.396,73.084 26.26,77.776 26.056,78.864 L9.532,78.864 L9.532,78.184 C9.532,73.56 11.572,61.524 38.432,61.524 L41.288,61.524 C68.352,61.524 71.48,69.14 71.48,74.58 L71.48,74.988 C71.48,80.292 66.652,83.012 63.388,83.76 C67.4,84.848 73.044,88.316 73.044,96.136 L73.044,96.612 C73.044,105.112 67.672,113.884 42.716,113.884 Z M108.608,113.884 L105.412,113.884 C79.98,113.884 76.716,102.596 76.716,97.632 L76.716,97.156 L93.444,97.156 C93.648,97.904 94.736,102.188 106.976,102.188 C118.604,102.188 120.032,98.788 120.032,96 L120.032,95.592 C120.032,92.804 118.604,89.404 106.976,89.404 C94.804,89.404 93.376,93.008 93.24,93.484 L77.804,93.484 L77.804,62.408 L133.088,62.408 L133.088,74.172 L93.376,74.172 L93.376,83.216 C94.328,82.468 99.02,78.524 111.396,78.524 L112.008,78.524 C132.068,78.524 136.624,86.276 136.624,95.524 L136.624,95.932 C136.624,104.16 131.728,113.884 108.608,113.884 Z M211.152,86.548 L211.152,88.588 C211.152,97.428 207.072,113.884 177.016,113.884 L174.024,113.884 C144.104,113.884 139.888,97.496 139.888,88.588 L139.888,86.548 C139.888,77.572 144.104,61.524 174.024,61.524 L177.016,61.524 C207.004,61.524 211.152,77.572 211.152,86.548 Z M194.56,87.976 L194.56,87.024 C194.56,81.312 191.024,73.832 175.52,73.832 C159.744,73.832 156.48,81.312 156.48,87.024 L156.48,87.84 C156.48,93.552 160.084,101.508 175.52,101.508 C190.956,101.508 194.56,93.756 194.56,87.976 Z M255.76,113.884 L252.836,113.884 C232.096,113.884 223.868,104.024 221.352,95.184 L213.736,95.184 L213.736,89.268 L220.4,89.268 L220.4,85.528 L213.736,85.528 L213.736,79.544 L221.42,79.544 C223.936,70.84 231.892,61.524 252.836,61.524 L255.76,61.524 C282.756,61.524 287.992,75.396 287.992,81.448 L287.992,82.196 L271.128,82.196 C270.856,80.836 268.476,73.696 254.128,73.696 C245.492,73.696 241.004,76.076 238.76,79.544 L259.636,79.544 L259.636,85.528 L236.992,85.528 C236.924,86.004 236.924,86.412 236.924,86.888 L236.924,87.704 C236.924,88.248 236.924,88.724 236.992,89.268 L259.636,89.268 L259.636,95.184 L238.964,95.184 C241.344,98.924 245.9,101.644 254.264,101.644 C268.816,101.644 270.856,93.892 271.196,92.6 L288.06,92.6 L288.06,93.348 C288.06,99.808 282.892,113.884 255.76,113.884 Z" id="350€-copy-3" fill="#0A5640"></path>
        <path d="M42.716,173.884 L39.52,173.884 C11.98,173.884 9.396,160.216 9.396,155.048 L9.396,154.504 L26.056,154.504 C26.26,155.796 27.008,162.188 40.948,162.188 C55.364,162.188 56.18,158.584 56.18,156.544 C56.18,154.572 55.092,152.6 49.108,152.6 L31.224,152.6 L31.224,140.836 L48.292,140.836 C53.936,140.836 54.888,139.204 54.888,137.504 C54.888,135.668 53.8,133.084 39.928,133.084 C26.396,133.084 26.26,137.776 26.056,138.864 L9.532,138.864 L9.532,138.184 C9.532,133.56 11.572,121.524 38.432,121.524 L41.288,121.524 C68.352,121.524 71.48,129.14 71.48,134.58 L71.48,134.988 C71.48,140.292 66.652,143.012 63.388,143.76 C67.4,144.848 73.044,148.316 73.044,156.136 L73.044,156.612 C73.044,165.112 67.672,173.884 42.716,173.884 Z M108.608,173.884 L105.412,173.884 C79.98,173.884 76.716,162.596 76.716,157.632 L76.716,157.156 L93.444,157.156 C93.648,157.904 94.736,162.188 106.976,162.188 C118.604,162.188 120.032,158.788 120.032,156 L120.032,155.592 C120.032,152.804 118.604,149.404 106.976,149.404 C94.804,149.404 93.376,153.008 93.24,153.484 L77.804,153.484 L77.804,122.408 L133.088,122.408 L133.088,134.172 L93.376,134.172 L93.376,143.216 C94.328,142.468 99.02,138.524 111.396,138.524 L112.008,138.524 C132.068,138.524 136.624,146.276 136.624,155.524 L136.624,155.932 C136.624,164.16 131.728,173.884 108.608,173.884 Z M211.152,146.548 L211.152,148.588 C211.152,157.428 207.072,173.884 177.016,173.884 L174.024,173.884 C144.104,173.884 139.888,157.496 139.888,148.588 L139.888,146.548 C139.888,137.572 144.104,121.524 174.024,121.524 L177.016,121.524 C207.004,121.524 211.152,137.572 211.152,146.548 Z M194.56,147.976 L194.56,147.024 C194.56,141.312 191.024,133.832 175.52,133.832 C159.744,133.832 156.48,141.312 156.48,147.024 L156.48,147.84 C156.48,153.552 160.084,161.508 175.52,161.508 C190.956,161.508 194.56,153.756 194.56,147.976 Z M255.76,173.884 L252.836,173.884 C232.096,173.884 223.868,164.024 221.352,155.184 L213.736,155.184 L213.736,149.268 L220.4,149.268 L220.4,145.528 L213.736,145.528 L213.736,139.544 L221.42,139.544 C223.936,130.84 231.892,121.524 252.836,121.524 L255.76,121.524 C282.756,121.524 287.992,135.396 287.992,141.448 L287.992,142.196 L271.128,142.196 C270.856,140.836 268.476,133.696 254.128,133.696 C245.492,133.696 241.004,136.076 238.76,139.544 L259.636,139.544 L259.636,145.528 L236.992,145.528 C236.924,146.004 236.924,146.412 236.924,146.888 L236.924,147.704 C236.924,148.248 236.924,148.724 236.992,149.268 L259.636,149.268 L259.636,155.184 L238.964,155.184 C241.344,158.924 245.9,161.644 254.264,161.644 C268.816,161.644 270.856,153.892 271.196,152.6 L288.06,152.6 L288.06,153.348 C288.06,159.808 282.892,173.884 255.76,173.884 Z" id="350€-copy-6" fill="#0A5640"></path>
        <path d="M42.716,233.884 L39.52,233.884 C11.98,233.884 9.396,220.216 9.396,215.048 L9.396,214.504 L26.056,214.504 C26.26,215.796 27.008,222.188 40.948,222.188 C55.364,222.188 56.18,218.584 56.18,216.544 C56.18,214.572 55.092,212.6 49.108,212.6 L31.224,212.6 L31.224,200.836 L48.292,200.836 C53.936,200.836 54.888,199.204 54.888,197.504 C54.888,195.668 53.8,193.084 39.928,193.084 C26.396,193.084 26.26,197.776 26.056,198.864 L9.532,198.864 L9.532,198.184 C9.532,193.56 11.572,181.524 38.432,181.524 L41.288,181.524 C68.352,181.524 71.48,189.14 71.48,194.58 L71.48,194.988 C71.48,200.292 66.652,203.012 63.388,203.76 C67.4,204.848 73.044,208.316 73.044,216.136 L73.044,216.612 C73.044,225.112 67.672,233.884 42.716,233.884 Z M108.608,233.884 L105.412,233.884 C79.98,233.884 76.716,222.596 76.716,217.632 L76.716,217.156 L93.444,217.156 C93.648,217.904 94.736,222.188 106.976,222.188 C118.604,222.188 120.032,218.788 120.032,216 L120.032,215.592 C120.032,212.804 118.604,209.404 106.976,209.404 C94.804,209.404 93.376,213.008 93.24,213.484 L77.804,213.484 L77.804,182.408 L133.088,182.408 L133.088,194.172 L93.376,194.172 L93.376,203.216 C94.328,202.468 99.02,198.524 111.396,198.524 L112.008,198.524 C132.068,198.524 136.624,206.276 136.624,215.524 L136.624,215.932 C136.624,224.16 131.728,233.884 108.608,233.884 Z M211.152,206.548 L211.152,208.588 C211.152,217.428 207.072,233.884 177.016,233.884 L174.024,233.884 C144.104,233.884 139.888,217.496 139.888,208.588 L139.888,206.548 C139.888,197.572 144.104,181.524 174.024,181.524 L177.016,181.524 C207.004,181.524 211.152,197.572 211.152,206.548 Z M194.56,207.976 L194.56,207.024 C194.56,201.312 191.024,193.832 175.52,193.832 C159.744,193.832 156.48,201.312 156.48,207.024 L156.48,207.84 C156.48,213.552 160.084,221.508 175.52,221.508 C190.956,221.508 194.56,213.756 194.56,207.976 Z M255.76,233.884 L252.836,233.884 C232.096,233.884 223.868,224.024 221.352,215.184 L213.736,215.184 L213.736,209.268 L220.4,209.268 L220.4,205.528 L213.736,205.528 L213.736,199.544 L221.42,199.544 C223.936,190.84 231.892,181.524 252.836,181.524 L255.76,181.524 C282.756,181.524 287.992,195.396 287.992,201.448 L287.992,202.196 L271.128,202.196 C270.856,200.836 268.476,193.696 254.128,193.696 C245.492,193.696 241.004,196.076 238.76,199.544 L259.636,199.544 L259.636,205.528 L236.992,205.528 C236.924,206.004 236.924,206.412 236.924,206.888 L236.924,207.704 C236.924,208.248 236.924,208.724 236.992,209.268 L259.636,209.268 L259.636,215.184 L238.964,215.184 C241.344,218.924 245.9,221.644 254.264,221.644 C268.816,221.644 270.856,213.892 271.196,212.6 L288.06,212.6 L288.06,213.348 C288.06,219.808 282.892,233.884 255.76,233.884 Z" id="350€-copy-9" fill="#0A5640"></path>
        <path d="M42.716,294.884 L39.52,294.884 C11.98,294.884 9.396,281.216 9.396,276.048 L9.396,275.504 L26.056,275.504 C26.26,276.796 27.008,283.188 40.948,283.188 C55.364,283.188 56.18,279.584 56.18,277.544 C56.18,275.572 55.092,273.6 49.108,273.6 L31.224,273.6 L31.224,261.836 L48.292,261.836 C53.936,261.836 54.888,260.204 54.888,258.504 C54.888,256.668 53.8,254.084 39.928,254.084 C26.396,254.084 26.26,258.776 26.056,259.864 L9.532,259.864 L9.532,259.184 C9.532,254.56 11.572,242.524 38.432,242.524 L41.288,242.524 C68.352,242.524 71.48,250.14 71.48,255.58 L71.48,255.988 C71.48,261.292 66.652,264.012 63.388,264.76 C67.4,265.848 73.044,269.316 73.044,277.136 L73.044,277.612 C73.044,286.112 67.672,294.884 42.716,294.884 Z M108.608,294.884 L105.412,294.884 C79.98,294.884 76.716,283.596 76.716,278.632 L76.716,278.156 L93.444,278.156 C93.648,278.904 94.736,283.188 106.976,283.188 C118.604,283.188 120.032,279.788 120.032,277 L120.032,276.592 C120.032,273.804 118.604,270.404 106.976,270.404 C94.804,270.404 93.376,274.008 93.24,274.484 L77.804,274.484 L77.804,243.408 L133.088,243.408 L133.088,255.172 L93.376,255.172 L93.376,264.216 C94.328,263.468 99.02,259.524 111.396,259.524 L112.008,259.524 C132.068,259.524 136.624,267.276 136.624,276.524 L136.624,276.932 C136.624,285.16 131.728,294.884 108.608,294.884 Z M211.152,267.548 L211.152,269.588 C211.152,278.428 207.072,294.884 177.016,294.884 L174.024,294.884 C144.104,294.884 139.888,278.496 139.888,269.588 L139.888,267.548 C139.888,258.572 144.104,242.524 174.024,242.524 L177.016,242.524 C207.004,242.524 211.152,258.572 211.152,267.548 Z M194.56,268.976 L194.56,268.024 C194.56,262.312 191.024,254.832 175.52,254.832 C159.744,254.832 156.48,262.312 156.48,268.024 L156.48,268.84 C156.48,274.552 160.084,282.508 175.52,282.508 C190.956,282.508 194.56,274.756 194.56,268.976 Z M255.76,294.884 L252.836,294.884 C232.096,294.884 223.868,285.024 221.352,276.184 L213.736,276.184 L213.736,270.268 L220.4,270.268 L220.4,266.528 L213.736,266.528 L213.736,260.544 L221.42,260.544 C223.936,251.84 231.892,242.524 252.836,242.524 L255.76,242.524 C282.756,242.524 287.992,256.396 287.992,262.448 L287.992,263.196 L271.128,263.196 C270.856,261.836 268.476,254.696 254.128,254.696 C245.492,254.696 241.004,257.076 238.76,260.544 L259.636,260.544 L259.636,266.528 L236.992,266.528 C236.924,267.004 236.924,267.412 236.924,267.888 L236.924,268.704 C236.924,269.248 236.924,269.724 236.992,270.268 L259.636,270.268 L259.636,276.184 L238.964,276.184 C241.344,279.924 245.9,282.644 254.264,282.644 C268.816,282.644 270.856,274.892 271.196,273.6 L288.06,273.6 L288.06,274.348 C288.06,280.808 282.892,294.884 255.76,294.884 Z" id="350€-copy-12" fill="#0A5640"></path>
        <path d="M42.716,354.884 L39.52,354.884 C11.98,354.884 9.396,341.216 9.396,336.048 L9.396,335.504 L26.056,335.504 C26.26,336.796 27.008,343.188 40.948,343.188 C55.364,343.188 56.18,339.584 56.18,337.544 C56.18,335.572 55.092,333.6 49.108,333.6 L31.224,333.6 L31.224,321.836 L48.292,321.836 C53.936,321.836 54.888,320.204 54.888,318.504 C54.888,316.668 53.8,314.084 39.928,314.084 C26.396,314.084 26.26,318.776 26.056,319.864 L9.532,319.864 L9.532,319.184 C9.532,314.56 11.572,302.524 38.432,302.524 L41.288,302.524 C68.352,302.524 71.48,310.14 71.48,315.58 L71.48,315.988 C71.48,321.292 66.652,324.012 63.388,324.76 C67.4,325.848 73.044,329.316 73.044,337.136 L73.044,337.612 C73.044,346.112 67.672,354.884 42.716,354.884 Z M108.608,354.884 L105.412,354.884 C79.98,354.884 76.716,343.596 76.716,338.632 L76.716,338.156 L93.444,338.156 C93.648,338.904 94.736,343.188 106.976,343.188 C118.604,343.188 120.032,339.788 120.032,337 L120.032,336.592 C120.032,333.804 118.604,330.404 106.976,330.404 C94.804,330.404 93.376,334.008 93.24,334.484 L77.804,334.484 L77.804,303.408 L133.088,303.408 L133.088,315.172 L93.376,315.172 L93.376,324.216 C94.328,323.468 99.02,319.524 111.396,319.524 L112.008,319.524 C132.068,319.524 136.624,327.276 136.624,336.524 L136.624,336.932 C136.624,345.16 131.728,354.884 108.608,354.884 Z M211.152,327.548 L211.152,329.588 C211.152,338.428 207.072,354.884 177.016,354.884 L174.024,354.884 C144.104,354.884 139.888,338.496 139.888,329.588 L139.888,327.548 C139.888,318.572 144.104,302.524 174.024,302.524 L177.016,302.524 C207.004,302.524 211.152,318.572 211.152,327.548 Z M194.56,328.976 L194.56,328.024 C194.56,322.312 191.024,314.832 175.52,314.832 C159.744,314.832 156.48,322.312 156.48,328.024 L156.48,328.84 C156.48,334.552 160.084,342.508 175.52,342.508 C190.956,342.508 194.56,334.756 194.56,328.976 Z M255.76,354.884 L252.836,354.884 C232.096,354.884 223.868,345.024 221.352,336.184 L213.736,336.184 L213.736,330.268 L220.4,330.268 L220.4,326.528 L213.736,326.528 L213.736,320.544 L221.42,320.544 C223.936,311.84 231.892,302.524 252.836,302.524 L255.76,302.524 C282.756,302.524 287.992,316.396 287.992,322.448 L287.992,323.196 L271.128,323.196 C270.856,321.836 268.476,314.696 254.128,314.696 C245.492,314.696 241.004,317.076 238.76,320.544 L259.636,320.544 L259.636,326.528 L236.992,326.528 C236.924,327.004 236.924,327.412 236.924,327.888 L236.924,328.704 C236.924,329.248 236.924,329.724 236.992,330.268 L259.636,330.268 L259.636,336.184 L238.964,336.184 C241.344,339.924 245.9,342.644 254.264,342.644 C268.816,342.644 270.856,334.892 271.196,333.6 L288.06,333.6 L288.06,334.348 C288.06,340.808 282.892,354.884 255.76,354.884 Z" id="350€-copy-15" fill="#0A5640"></path>
        <path d="M42.716,414.884 L39.52,414.884 C11.98,414.884 9.396,401.216 9.396,396.048 L9.396,395.504 L26.056,395.504 C26.26,396.796 27.008,403.188 40.948,403.188 C55.364,403.188 56.18,399.584 56.18,397.544 C56.18,395.572 55.092,393.6 49.108,393.6 L31.224,393.6 L31.224,381.836 L48.292,381.836 C53.936,381.836 54.888,380.204 54.888,378.504 C54.888,376.668 53.8,374.084 39.928,374.084 C26.396,374.084 26.26,378.776 26.056,379.864 L9.532,379.864 L9.532,379.184 C9.532,374.56 11.572,362.524 38.432,362.524 L41.288,362.524 C68.352,362.524 71.48,370.14 71.48,375.58 L71.48,375.988 C71.48,381.292 66.652,384.012 63.388,384.76 C67.4,385.848 73.044,389.316 73.044,397.136 L73.044,397.612 C73.044,406.112 67.672,414.884 42.716,414.884 Z M108.608,414.884 L105.412,414.884 C79.98,414.884 76.716,403.596 76.716,398.632 L76.716,398.156 L93.444,398.156 C93.648,398.904 94.736,403.188 106.976,403.188 C118.604,403.188 120.032,399.788 120.032,397 L120.032,396.592 C120.032,393.804 118.604,390.404 106.976,390.404 C94.804,390.404 93.376,394.008 93.24,394.484 L77.804,394.484 L77.804,363.408 L133.088,363.408 L133.088,375.172 L93.376,375.172 L93.376,384.216 C94.328,383.468 99.02,379.524 111.396,379.524 L112.008,379.524 C132.068,379.524 136.624,387.276 136.624,396.524 L136.624,396.932 C136.624,405.16 131.728,414.884 108.608,414.884 Z M211.152,387.548 L211.152,389.588 C211.152,398.428 207.072,414.884 177.016,414.884 L174.024,414.884 C144.104,414.884 139.888,398.496 139.888,389.588 L139.888,387.548 C139.888,378.572 144.104,362.524 174.024,362.524 L177.016,362.524 C207.004,362.524 211.152,378.572 211.152,387.548 Z M194.56,388.976 L194.56,388.024 C194.56,382.312 191.024,374.832 175.52,374.832 C159.744,374.832 156.48,382.312 156.48,388.024 L156.48,388.84 C156.48,394.552 160.084,402.508 175.52,402.508 C190.956,402.508 194.56,394.756 194.56,388.976 Z M255.76,414.884 L252.836,414.884 C232.096,414.884 223.868,405.024 221.352,396.184 L213.736,396.184 L213.736,390.268 L220.4,390.268 L220.4,386.528 L213.736,386.528 L213.736,380.544 L221.42,380.544 C223.936,371.84 231.892,362.524 252.836,362.524 L255.76,362.524 C282.756,362.524 287.992,376.396 287.992,382.448 L287.992,383.196 L271.128,383.196 C270.856,381.836 268.476,374.696 254.128,374.696 C245.492,374.696 241.004,377.076 238.76,380.544 L259.636,380.544 L259.636,386.528 L236.992,386.528 C236.924,387.004 236.924,387.412 236.924,387.888 L236.924,388.704 C236.924,389.248 236.924,389.724 236.992,390.268 L259.636,390.268 L259.636,396.184 L238.964,396.184 C241.344,399.924 245.9,402.644 254.264,402.644 C268.816,402.644 270.856,394.892 271.196,393.6 L288.06,393.6 L288.06,394.348 C288.06,400.808 282.892,414.884 255.76,414.884 Z" id="350€-copy-18" fill="#0A5640"></path>
        <path d="M42.716,474.884 L39.52,474.884 C11.98,474.884 9.396,461.216 9.396,456.048 L9.396,455.504 L26.056,455.504 C26.26,456.796 27.008,463.188 40.948,463.188 C55.364,463.188 56.18,459.584 56.18,457.544 C56.18,455.572 55.092,453.6 49.108,453.6 L31.224,453.6 L31.224,441.836 L48.292,441.836 C53.936,441.836 54.888,440.204 54.888,438.504 C54.888,436.668 53.8,434.084 39.928,434.084 C26.396,434.084 26.26,438.776 26.056,439.864 L9.532,439.864 L9.532,439.184 C9.532,434.56 11.572,422.524 38.432,422.524 L41.288,422.524 C68.352,422.524 71.48,430.14 71.48,435.58 L71.48,435.988 C71.48,441.292 66.652,444.012 63.388,444.76 C67.4,445.848 73.044,449.316 73.044,457.136 L73.044,457.612 C73.044,466.112 67.672,474.884 42.716,474.884 Z M108.608,474.884 L105.412,474.884 C79.98,474.884 76.716,463.596 76.716,458.632 L76.716,458.156 L93.444,458.156 C93.648,458.904 94.736,463.188 106.976,463.188 C118.604,463.188 120.032,459.788 120.032,457 L120.032,456.592 C120.032,453.804 118.604,450.404 106.976,450.404 C94.804,450.404 93.376,454.008 93.24,454.484 L77.804,454.484 L77.804,423.408 L133.088,423.408 L133.088,435.172 L93.376,435.172 L93.376,444.216 C94.328,443.468 99.02,439.524 111.396,439.524 L112.008,439.524 C132.068,439.524 136.624,447.276 136.624,456.524 L136.624,456.932 C136.624,465.16 131.728,474.884 108.608,474.884 Z M211.152,447.548 L211.152,449.588 C211.152,458.428 207.072,474.884 177.016,474.884 L174.024,474.884 C144.104,474.884 139.888,458.496 139.888,449.588 L139.888,447.548 C139.888,438.572 144.104,422.524 174.024,422.524 L177.016,422.524 C207.004,422.524 211.152,438.572 211.152,447.548 Z M194.56,448.976 L194.56,448.024 C194.56,442.312 191.024,434.832 175.52,434.832 C159.744,434.832 156.48,442.312 156.48,448.024 L156.48,448.84 C156.48,454.552 160.084,462.508 175.52,462.508 C190.956,462.508 194.56,454.756 194.56,448.976 Z M255.76,474.884 L252.836,474.884 C232.096,474.884 223.868,465.024 221.352,456.184 L213.736,456.184 L213.736,450.268 L220.4,450.268 L220.4,446.528 L213.736,446.528 L213.736,440.544 L221.42,440.544 C223.936,431.84 231.892,422.524 252.836,422.524 L255.76,422.524 C282.756,422.524 287.992,436.396 287.992,442.448 L287.992,443.196 L271.128,443.196 C270.856,441.836 268.476,434.696 254.128,434.696 C245.492,434.696 241.004,437.076 238.76,440.544 L259.636,440.544 L259.636,446.528 L236.992,446.528 C236.924,447.004 236.924,447.412 236.924,447.888 L236.924,448.704 C236.924,449.248 236.924,449.724 236.992,450.268 L259.636,450.268 L259.636,456.184 L238.964,456.184 C241.344,459.924 245.9,462.644 254.264,462.644 C268.816,462.644 270.856,454.892 271.196,453.6 L288.06,453.6 L288.06,454.348 C288.06,460.808 282.892,474.884 255.76,474.884 Z" id="350€-copy-21" fill="#0A5640"></path>
        <path d="M42.716,534.884 L39.52,534.884 C11.98,534.884 9.396,521.216 9.396,516.048 L9.396,515.504 L26.056,515.504 C26.26,516.796 27.008,523.188 40.948,523.188 C55.364,523.188 56.18,519.584 56.18,517.544 C56.18,515.572 55.092,513.6 49.108,513.6 L31.224,513.6 L31.224,501.836 L48.292,501.836 C53.936,501.836 54.888,500.204 54.888,498.504 C54.888,496.668 53.8,494.084 39.928,494.084 C26.396,494.084 26.26,498.776 26.056,499.864 L9.532,499.864 L9.532,499.184 C9.532,494.56 11.572,482.524 38.432,482.524 L41.288,482.524 C68.352,482.524 71.48,490.14 71.48,495.58 L71.48,495.988 C71.48,501.292 66.652,504.012 63.388,504.76 C67.4,505.848 73.044,509.316 73.044,517.136 L73.044,517.612 C73.044,526.112 67.672,534.884 42.716,534.884 Z M108.608,534.884 L105.412,534.884 C79.98,534.884 76.716,523.596 76.716,518.632 L76.716,518.156 L93.444,518.156 C93.648,518.904 94.736,523.188 106.976,523.188 C118.604,523.188 120.032,519.788 120.032,517 L120.032,516.592 C120.032,513.804 118.604,510.404 106.976,510.404 C94.804,510.404 93.376,514.008 93.24,514.484 L77.804,514.484 L77.804,483.408 L133.088,483.408 L133.088,495.172 L93.376,495.172 L93.376,504.216 C94.328,503.468 99.02,499.524 111.396,499.524 L112.008,499.524 C132.068,499.524 136.624,507.276 136.624,516.524 L136.624,516.932 C136.624,525.16 131.728,534.884 108.608,534.884 Z M211.152,507.548 L211.152,509.588 C211.152,518.428 207.072,534.884 177.016,534.884 L174.024,534.884 C144.104,534.884 139.888,518.496 139.888,509.588 L139.888,507.548 C139.888,498.572 144.104,482.524 174.024,482.524 L177.016,482.524 C207.004,482.524 211.152,498.572 211.152,507.548 Z M194.56,508.976 L194.56,508.024 C194.56,502.312 191.024,494.832 175.52,494.832 C159.744,494.832 156.48,502.312 156.48,508.024 L156.48,508.84 C156.48,514.552 160.084,522.508 175.52,522.508 C190.956,522.508 194.56,514.756 194.56,508.976 Z M255.76,534.884 L252.836,534.884 C232.096,534.884 223.868,525.024 221.352,516.184 L213.736,516.184 L213.736,510.268 L220.4,510.268 L220.4,506.528 L213.736,506.528 L213.736,500.544 L221.42,500.544 C223.936,491.84 231.892,482.524 252.836,482.524 L255.76,482.524 C282.756,482.524 287.992,496.396 287.992,502.448 L287.992,503.196 L271.128,503.196 C270.856,501.836 268.476,494.696 254.128,494.696 C245.492,494.696 241.004,497.076 238.76,500.544 L259.636,500.544 L259.636,506.528 L236.992,506.528 C236.924,507.004 236.924,507.412 236.924,507.888 L236.924,508.704 C236.924,509.248 236.924,509.724 236.992,510.268 L259.636,510.268 L259.636,516.184 L238.964,516.184 C241.344,519.924 245.9,522.644 254.264,522.644 C268.816,522.644 270.856,514.892 271.196,513.6 L288.06,513.6 L288.06,514.348 C288.06,520.808 282.892,534.884 255.76,534.884 Z" id="350€-copy-24" fill="#0A5640"></path>
        <path d="M42.716,594.884 L39.52,594.884 C11.98,594.884 9.396,581.216 9.396,576.048 L9.396,575.504 L26.056,575.504 C26.26,576.796 27.008,583.188 40.948,583.188 C55.364,583.188 56.18,579.584 56.18,577.544 C56.18,575.572 55.092,573.6 49.108,573.6 L31.224,573.6 L31.224,561.836 L48.292,561.836 C53.936,561.836 54.888,560.204 54.888,558.504 C54.888,556.668 53.8,554.084 39.928,554.084 C26.396,554.084 26.26,558.776 26.056,559.864 L9.532,559.864 L9.532,559.184 C9.532,554.56 11.572,542.524 38.432,542.524 L41.288,542.524 C68.352,542.524 71.48,550.14 71.48,555.58 L71.48,555.988 C71.48,561.292 66.652,564.012 63.388,564.76 C67.4,565.848 73.044,569.316 73.044,577.136 L73.044,577.612 C73.044,586.112 67.672,594.884 42.716,594.884 Z M108.608,594.884 L105.412,594.884 C79.98,594.884 76.716,583.596 76.716,578.632 L76.716,578.156 L93.444,578.156 C93.648,578.904 94.736,583.188 106.976,583.188 C118.604,583.188 120.032,579.788 120.032,577 L120.032,576.592 C120.032,573.804 118.604,570.404 106.976,570.404 C94.804,570.404 93.376,574.008 93.24,574.484 L77.804,574.484 L77.804,543.408 L133.088,543.408 L133.088,555.172 L93.376,555.172 L93.376,564.216 C94.328,563.468 99.02,559.524 111.396,559.524 L112.008,559.524 C132.068,559.524 136.624,567.276 136.624,576.524 L136.624,576.932 C136.624,585.16 131.728,594.884 108.608,594.884 Z M211.152,567.548 L211.152,569.588 C211.152,578.428 207.072,594.884 177.016,594.884 L174.024,594.884 C144.104,594.884 139.888,578.496 139.888,569.588 L139.888,567.548 C139.888,558.572 144.104,542.524 174.024,542.524 L177.016,542.524 C207.004,542.524 211.152,558.572 211.152,567.548 Z M194.56,568.976 L194.56,568.024 C194.56,562.312 191.024,554.832 175.52,554.832 C159.744,554.832 156.48,562.312 156.48,568.024 L156.48,568.84 C156.48,574.552 160.084,582.508 175.52,582.508 C190.956,582.508 194.56,574.756 194.56,568.976 Z M255.76,594.884 L252.836,594.884 C232.096,594.884 223.868,585.024 221.352,576.184 L213.736,576.184 L213.736,570.268 L220.4,570.268 L220.4,566.528 L213.736,566.528 L213.736,560.544 L221.42,560.544 C223.936,551.84 231.892,542.524 252.836,542.524 L255.76,542.524 C282.756,542.524 287.992,556.396 287.992,562.448 L287.992,563.196 L271.128,563.196 C270.856,561.836 268.476,554.696 254.128,554.696 C245.492,554.696 241.004,557.076 238.76,560.544 L259.636,560.544 L259.636,566.528 L236.992,566.528 C236.924,567.004 236.924,567.412 236.924,567.888 L236.924,568.704 C236.924,569.248 236.924,569.724 236.992,570.268 L259.636,570.268 L259.636,576.184 L238.964,576.184 C241.344,579.924 245.9,582.644 254.264,582.644 C268.816,582.644 270.856,574.892 271.196,573.6 L288.06,573.6 L288.06,574.348 C288.06,580.808 282.892,594.884 255.76,594.884 Z" id="350€-copy-27" fill="#0A5640"></path>
        <path d="M325.716,53.884 L322.52,53.884 C294.98,53.884 292.396,40.216 292.396,35.048 L292.396,34.504 L309.056,34.504 C309.26,35.796 310.008,42.188 323.948,42.188 C338.364,42.188 339.18,38.584 339.18,36.544 C339.18,34.572 338.092,32.6 332.108,32.6 L314.224,32.6 L314.224,20.836 L331.292,20.836 C336.936,20.836 337.888,19.204 337.888,17.504 C337.888,15.668 336.8,13.084 322.928,13.084 C309.396,13.084 309.26,17.776 309.056,18.864 L292.532,18.864 L292.532,18.184 C292.532,13.56 294.572,1.524 321.432,1.524 L324.288,1.524 C351.352,1.524 354.48,9.14 354.48,14.58 L354.48,14.988 C354.48,20.292 349.652,23.012 346.388,23.76 C350.4,24.848 356.044,28.316 356.044,36.136 L356.044,36.612 C356.044,45.112 350.672,53.884 325.716,53.884 Z M391.608,53.884 L388.412,53.884 C362.98,53.884 359.716,42.596 359.716,37.632 L359.716,37.156 L376.444,37.156 C376.648,37.904 377.736,42.188 389.976,42.188 C401.604,42.188 403.032,38.788 403.032,36 L403.032,35.592 C403.032,32.804 401.604,29.404 389.976,29.404 C377.804,29.404 376.376,33.008 376.24,33.484 L360.804,33.484 L360.804,2.408 L416.088,2.408 L416.088,14.172 L376.376,14.172 L376.376,23.216 C377.328,22.468 382.02,18.524 394.396,18.524 L395.008,18.524 C415.068,18.524 419.624,26.276 419.624,35.524 L419.624,35.932 C419.624,44.16 414.728,53.884 391.608,53.884 Z M494.152,26.548 L494.152,28.588 C494.152,37.428 490.072,53.884 460.016,53.884 L457.024,53.884 C427.104,53.884 422.888,37.496 422.888,28.588 L422.888,26.548 C422.888,17.572 427.104,1.524 457.024,1.524 L460.016,1.524 C490.004,1.524 494.152,17.572 494.152,26.548 Z M477.56,27.976 L477.56,27.024 C477.56,21.312 474.024,13.832 458.52,13.832 C442.744,13.832 439.48,21.312 439.48,27.024 L439.48,27.84 C439.48,33.552 443.084,41.508 458.52,41.508 C473.956,41.508 477.56,33.756 477.56,27.976 Z M538.76,53.884 L535.836,53.884 C515.096,53.884 506.868,44.024 504.352,35.184 L496.736,35.184 L496.736,29.268 L503.4,29.268 L503.4,25.528 L496.736,25.528 L496.736,19.544 L504.42,19.544 C506.936,10.84 514.892,1.524 535.836,1.524 L538.76,1.524 C565.756,1.524 570.992,15.396 570.992,21.448 L570.992,22.196 L554.128,22.196 C553.856,20.836 551.476,13.696 537.128,13.696 C528.492,13.696 524.004,16.076 521.76,19.544 L542.636,19.544 L542.636,25.528 L519.992,25.528 C519.924,26.004 519.924,26.412 519.924,26.888 L519.924,27.704 C519.924,28.248 519.924,28.724 519.992,29.268 L542.636,29.268 L542.636,35.184 L521.964,35.184 C524.344,38.924 528.9,41.644 537.264,41.644 C551.816,41.644 553.856,33.892 554.196,32.6 L571.06,32.6 L571.06,33.348 C571.06,39.808 565.892,53.884 538.76,53.884 Z" id="350€-copy" fill="#0A5640"></path>
        <path d="M325.716,113.884 L322.52,113.884 C294.98,113.884 292.396,100.216 292.396,95.048 L292.396,94.504 L309.056,94.504 C309.26,95.796 310.008,102.188 323.948,102.188 C338.364,102.188 339.18,98.584 339.18,96.544 C339.18,94.572 338.092,92.6 332.108,92.6 L314.224,92.6 L314.224,80.836 L331.292,80.836 C336.936,80.836 337.888,79.204 337.888,77.504 C337.888,75.668 336.8,73.084 322.928,73.084 C309.396,73.084 309.26,77.776 309.056,78.864 L292.532,78.864 L292.532,78.184 C292.532,73.56 294.572,61.524 321.432,61.524 L324.288,61.524 C351.352,61.524 354.48,69.14 354.48,74.58 L354.48,74.988 C354.48,80.292 349.652,83.012 346.388,83.76 C350.4,84.848 356.044,88.316 356.044,96.136 L356.044,96.612 C356.044,105.112 350.672,113.884 325.716,113.884 Z M391.608,113.884 L388.412,113.884 C362.98,113.884 359.716,102.596 359.716,97.632 L359.716,97.156 L376.444,97.156 C376.648,97.904 377.736,102.188 389.976,102.188 C401.604,102.188 403.032,98.788 403.032,96 L403.032,95.592 C403.032,92.804 401.604,89.404 389.976,89.404 C377.804,89.404 376.376,93.008 376.24,93.484 L360.804,93.484 L360.804,62.408 L416.088,62.408 L416.088,74.172 L376.376,74.172 L376.376,83.216 C377.328,82.468 382.02,78.524 394.396,78.524 L395.008,78.524 C415.068,78.524 419.624,86.276 419.624,95.524 L419.624,95.932 C419.624,104.16 414.728,113.884 391.608,113.884 Z M494.152,86.548 L494.152,88.588 C494.152,97.428 490.072,113.884 460.016,113.884 L457.024,113.884 C427.104,113.884 422.888,97.496 422.888,88.588 L422.888,86.548 C422.888,77.572 427.104,61.524 457.024,61.524 L460.016,61.524 C490.004,61.524 494.152,77.572 494.152,86.548 Z M477.56,87.976 L477.56,87.024 C477.56,81.312 474.024,73.832 458.52,73.832 C442.744,73.832 439.48,81.312 439.48,87.024 L439.48,87.84 C439.48,93.552 443.084,101.508 458.52,101.508 C473.956,101.508 477.56,93.756 477.56,87.976 Z M538.76,113.884 L535.836,113.884 C515.096,113.884 506.868,104.024 504.352,95.184 L496.736,95.184 L496.736,89.268 L503.4,89.268 L503.4,85.528 L496.736,85.528 L496.736,79.544 L504.42,79.544 C506.936,70.84 514.892,61.524 535.836,61.524 L538.76,61.524 C565.756,61.524 570.992,75.396 570.992,81.448 L570.992,82.196 L554.128,82.196 C553.856,80.836 551.476,73.696 537.128,73.696 C528.492,73.696 524.004,76.076 521.76,79.544 L542.636,79.544 L542.636,85.528 L519.992,85.528 C519.924,86.004 519.924,86.412 519.924,86.888 L519.924,87.704 C519.924,88.248 519.924,88.724 519.992,89.268 L542.636,89.268 L542.636,95.184 L521.964,95.184 C524.344,98.924 528.9,101.644 537.264,101.644 C551.816,101.644 553.856,93.892 554.196,92.6 L571.06,92.6 L571.06,93.348 C571.06,99.808 565.892,113.884 538.76,113.884 Z" id="350€-copy-4" fill="#0A5640"></path>
        <path d="M325.716,173.884 L322.52,173.884 C294.98,173.884 292.396,160.216 292.396,155.048 L292.396,154.504 L309.056,154.504 C309.26,155.796 310.008,162.188 323.948,162.188 C338.364,162.188 339.18,158.584 339.18,156.544 C339.18,154.572 338.092,152.6 332.108,152.6 L314.224,152.6 L314.224,140.836 L331.292,140.836 C336.936,140.836 337.888,139.204 337.888,137.504 C337.888,135.668 336.8,133.084 322.928,133.084 C309.396,133.084 309.26,137.776 309.056,138.864 L292.532,138.864 L292.532,138.184 C292.532,133.56 294.572,121.524 321.432,121.524 L324.288,121.524 C351.352,121.524 354.48,129.14 354.48,134.58 L354.48,134.988 C354.48,140.292 349.652,143.012 346.388,143.76 C350.4,144.848 356.044,148.316 356.044,156.136 L356.044,156.612 C356.044,165.112 350.672,173.884 325.716,173.884 Z M391.608,173.884 L388.412,173.884 C362.98,173.884 359.716,162.596 359.716,157.632 L359.716,157.156 L376.444,157.156 C376.648,157.904 377.736,162.188 389.976,162.188 C401.604,162.188 403.032,158.788 403.032,156 L403.032,155.592 C403.032,152.804 401.604,149.404 389.976,149.404 C377.804,149.404 376.376,153.008 376.24,153.484 L360.804,153.484 L360.804,122.408 L416.088,122.408 L416.088,134.172 L376.376,134.172 L376.376,143.216 C377.328,142.468 382.02,138.524 394.396,138.524 L395.008,138.524 C415.068,138.524 419.624,146.276 419.624,155.524 L419.624,155.932 C419.624,164.16 414.728,173.884 391.608,173.884 Z M494.152,146.548 L494.152,148.588 C494.152,157.428 490.072,173.884 460.016,173.884 L457.024,173.884 C427.104,173.884 422.888,157.496 422.888,148.588 L422.888,146.548 C422.888,137.572 427.104,121.524 457.024,121.524 L460.016,121.524 C490.004,121.524 494.152,137.572 494.152,146.548 Z M477.56,147.976 L477.56,147.024 C477.56,141.312 474.024,133.832 458.52,133.832 C442.744,133.832 439.48,141.312 439.48,147.024 L439.48,147.84 C439.48,153.552 443.084,161.508 458.52,161.508 C473.956,161.508 477.56,153.756 477.56,147.976 Z M538.76,173.884 L535.836,173.884 C515.096,173.884 506.868,164.024 504.352,155.184 L496.736,155.184 L496.736,149.268 L503.4,149.268 L503.4,145.528 L496.736,145.528 L496.736,139.544 L504.42,139.544 C506.936,130.84 514.892,121.524 535.836,121.524 L538.76,121.524 C565.756,121.524 570.992,135.396 570.992,141.448 L570.992,142.196 L554.128,142.196 C553.856,140.836 551.476,133.696 537.128,133.696 C528.492,133.696 524.004,136.076 521.76,139.544 L542.636,139.544 L542.636,145.528 L519.992,145.528 C519.924,146.004 519.924,146.412 519.924,146.888 L519.924,147.704 C519.924,148.248 519.924,148.724 519.992,149.268 L542.636,149.268 L542.636,155.184 L521.964,155.184 C524.344,158.924 528.9,161.644 537.264,161.644 C551.816,161.644 553.856,153.892 554.196,152.6 L571.06,152.6 L571.06,153.348 C571.06,159.808 565.892,173.884 538.76,173.884 Z" id="350€-copy-7" fill="#0A5640"></path>
        <path d="M325.716,233.884 L322.52,233.884 C294.98,233.884 292.396,220.216 292.396,215.048 L292.396,214.504 L309.056,214.504 C309.26,215.796 310.008,222.188 323.948,222.188 C338.364,222.188 339.18,218.584 339.18,216.544 C339.18,214.572 338.092,212.6 332.108,212.6 L314.224,212.6 L314.224,200.836 L331.292,200.836 C336.936,200.836 337.888,199.204 337.888,197.504 C337.888,195.668 336.8,193.084 322.928,193.084 C309.396,193.084 309.26,197.776 309.056,198.864 L292.532,198.864 L292.532,198.184 C292.532,193.56 294.572,181.524 321.432,181.524 L324.288,181.524 C351.352,181.524 354.48,189.14 354.48,194.58 L354.48,194.988 C354.48,200.292 349.652,203.012 346.388,203.76 C350.4,204.848 356.044,208.316 356.044,216.136 L356.044,216.612 C356.044,225.112 350.672,233.884 325.716,233.884 Z M391.608,233.884 L388.412,233.884 C362.98,233.884 359.716,222.596 359.716,217.632 L359.716,217.156 L376.444,217.156 C376.648,217.904 377.736,222.188 389.976,222.188 C401.604,222.188 403.032,218.788 403.032,216 L403.032,215.592 C403.032,212.804 401.604,209.404 389.976,209.404 C377.804,209.404 376.376,213.008 376.24,213.484 L360.804,213.484 L360.804,182.408 L416.088,182.408 L416.088,194.172 L376.376,194.172 L376.376,203.216 C377.328,202.468 382.02,198.524 394.396,198.524 L395.008,198.524 C415.068,198.524 419.624,206.276 419.624,215.524 L419.624,215.932 C419.624,224.16 414.728,233.884 391.608,233.884 Z M494.152,206.548 L494.152,208.588 C494.152,217.428 490.072,233.884 460.016,233.884 L457.024,233.884 C427.104,233.884 422.888,217.496 422.888,208.588 L422.888,206.548 C422.888,197.572 427.104,181.524 457.024,181.524 L460.016,181.524 C490.004,181.524 494.152,197.572 494.152,206.548 Z M477.56,207.976 L477.56,207.024 C477.56,201.312 474.024,193.832 458.52,193.832 C442.744,193.832 439.48,201.312 439.48,207.024 L439.48,207.84 C439.48,213.552 443.084,221.508 458.52,221.508 C473.956,221.508 477.56,213.756 477.56,207.976 Z M538.76,233.884 L535.836,233.884 C515.096,233.884 506.868,224.024 504.352,215.184 L496.736,215.184 L496.736,209.268 L503.4,209.268 L503.4,205.528 L496.736,205.528 L496.736,199.544 L504.42,199.544 C506.936,190.84 514.892,181.524 535.836,181.524 L538.76,181.524 C565.756,181.524 570.992,195.396 570.992,201.448 L570.992,202.196 L554.128,202.196 C553.856,200.836 551.476,193.696 537.128,193.696 C528.492,193.696 524.004,196.076 521.76,199.544 L542.636,199.544 L542.636,205.528 L519.992,205.528 C519.924,206.004 519.924,206.412 519.924,206.888 L519.924,207.704 C519.924,208.248 519.924,208.724 519.992,209.268 L542.636,209.268 L542.636,215.184 L521.964,215.184 C524.344,218.924 528.9,221.644 537.264,221.644 C551.816,221.644 553.856,213.892 554.196,212.6 L571.06,212.6 L571.06,213.348 C571.06,219.808 565.892,233.884 538.76,233.884 Z" id="350€-copy-10" fill="#0A5640"></path>
        <path d="M325.716,294.884 L322.52,294.884 C294.98,294.884 292.396,281.216 292.396,276.048 L292.396,275.504 L309.056,275.504 C309.26,276.796 310.008,283.188 323.948,283.188 C338.364,283.188 339.18,279.584 339.18,277.544 C339.18,275.572 338.092,273.6 332.108,273.6 L314.224,273.6 L314.224,261.836 L331.292,261.836 C336.936,261.836 337.888,260.204 337.888,258.504 C337.888,256.668 336.8,254.084 322.928,254.084 C309.396,254.084 309.26,258.776 309.056,259.864 L292.532,259.864 L292.532,259.184 C292.532,254.56 294.572,242.524 321.432,242.524 L324.288,242.524 C351.352,242.524 354.48,250.14 354.48,255.58 L354.48,255.988 C354.48,261.292 349.652,264.012 346.388,264.76 C350.4,265.848 356.044,269.316 356.044,277.136 L356.044,277.612 C356.044,286.112 350.672,294.884 325.716,294.884 Z M391.608,294.884 L388.412,294.884 C362.98,294.884 359.716,283.596 359.716,278.632 L359.716,278.156 L376.444,278.156 C376.648,278.904 377.736,283.188 389.976,283.188 C401.604,283.188 403.032,279.788 403.032,277 L403.032,276.592 C403.032,273.804 401.604,270.404 389.976,270.404 C377.804,270.404 376.376,274.008 376.24,274.484 L360.804,274.484 L360.804,243.408 L416.088,243.408 L416.088,255.172 L376.376,255.172 L376.376,264.216 C377.328,263.468 382.02,259.524 394.396,259.524 L395.008,259.524 C415.068,259.524 419.624,267.276 419.624,276.524 L419.624,276.932 C419.624,285.16 414.728,294.884 391.608,294.884 Z M494.152,267.548 L494.152,269.588 C494.152,278.428 490.072,294.884 460.016,294.884 L457.024,294.884 C427.104,294.884 422.888,278.496 422.888,269.588 L422.888,267.548 C422.888,258.572 427.104,242.524 457.024,242.524 L460.016,242.524 C490.004,242.524 494.152,258.572 494.152,267.548 Z M477.56,268.976 L477.56,268.024 C477.56,262.312 474.024,254.832 458.52,254.832 C442.744,254.832 439.48,262.312 439.48,268.024 L439.48,268.84 C439.48,274.552 443.084,282.508 458.52,282.508 C473.956,282.508 477.56,274.756 477.56,268.976 Z M538.76,294.884 L535.836,294.884 C515.096,294.884 506.868,285.024 504.352,276.184 L496.736,276.184 L496.736,270.268 L503.4,270.268 L503.4,266.528 L496.736,266.528 L496.736,260.544 L504.42,260.544 C506.936,251.84 514.892,242.524 535.836,242.524 L538.76,242.524 C565.756,242.524 570.992,256.396 570.992,262.448 L570.992,263.196 L554.128,263.196 C553.856,261.836 551.476,254.696 537.128,254.696 C528.492,254.696 524.004,257.076 521.76,260.544 L542.636,260.544 L542.636,266.528 L519.992,266.528 C519.924,267.004 519.924,267.412 519.924,267.888 L519.924,268.704 C519.924,269.248 519.924,269.724 519.992,270.268 L542.636,270.268 L542.636,276.184 L521.964,276.184 C524.344,279.924 528.9,282.644 537.264,282.644 C551.816,282.644 553.856,274.892 554.196,273.6 L571.06,273.6 L571.06,274.348 C571.06,280.808 565.892,294.884 538.76,294.884 Z" id="350€-copy-13" fill="#0A5640"></path>
        <path d="M325.716,354.884 L322.52,354.884 C294.98,354.884 292.396,341.216 292.396,336.048 L292.396,335.504 L309.056,335.504 C309.26,336.796 310.008,343.188 323.948,343.188 C338.364,343.188 339.18,339.584 339.18,337.544 C339.18,335.572 338.092,333.6 332.108,333.6 L314.224,333.6 L314.224,321.836 L331.292,321.836 C336.936,321.836 337.888,320.204 337.888,318.504 C337.888,316.668 336.8,314.084 322.928,314.084 C309.396,314.084 309.26,318.776 309.056,319.864 L292.532,319.864 L292.532,319.184 C292.532,314.56 294.572,302.524 321.432,302.524 L324.288,302.524 C351.352,302.524 354.48,310.14 354.48,315.58 L354.48,315.988 C354.48,321.292 349.652,324.012 346.388,324.76 C350.4,325.848 356.044,329.316 356.044,337.136 L356.044,337.612 C356.044,346.112 350.672,354.884 325.716,354.884 Z M391.608,354.884 L388.412,354.884 C362.98,354.884 359.716,343.596 359.716,338.632 L359.716,338.156 L376.444,338.156 C376.648,338.904 377.736,343.188 389.976,343.188 C401.604,343.188 403.032,339.788 403.032,337 L403.032,336.592 C403.032,333.804 401.604,330.404 389.976,330.404 C377.804,330.404 376.376,334.008 376.24,334.484 L360.804,334.484 L360.804,303.408 L416.088,303.408 L416.088,315.172 L376.376,315.172 L376.376,324.216 C377.328,323.468 382.02,319.524 394.396,319.524 L395.008,319.524 C415.068,319.524 419.624,327.276 419.624,336.524 L419.624,336.932 C419.624,345.16 414.728,354.884 391.608,354.884 Z M494.152,327.548 L494.152,329.588 C494.152,338.428 490.072,354.884 460.016,354.884 L457.024,354.884 C427.104,354.884 422.888,338.496 422.888,329.588 L422.888,327.548 C422.888,318.572 427.104,302.524 457.024,302.524 L460.016,302.524 C490.004,302.524 494.152,318.572 494.152,327.548 Z M477.56,328.976 L477.56,328.024 C477.56,322.312 474.024,314.832 458.52,314.832 C442.744,314.832 439.48,322.312 439.48,328.024 L439.48,328.84 C439.48,334.552 443.084,342.508 458.52,342.508 C473.956,342.508 477.56,334.756 477.56,328.976 Z M538.76,354.884 L535.836,354.884 C515.096,354.884 506.868,345.024 504.352,336.184 L496.736,336.184 L496.736,330.268 L503.4,330.268 L503.4,326.528 L496.736,326.528 L496.736,320.544 L504.42,320.544 C506.936,311.84 514.892,302.524 535.836,302.524 L538.76,302.524 C565.756,302.524 570.992,316.396 570.992,322.448 L570.992,323.196 L554.128,323.196 C553.856,321.836 551.476,314.696 537.128,314.696 C528.492,314.696 524.004,317.076 521.76,320.544 L542.636,320.544 L542.636,326.528 L519.992,326.528 C519.924,327.004 519.924,327.412 519.924,327.888 L519.924,328.704 C519.924,329.248 519.924,329.724 519.992,330.268 L542.636,330.268 L542.636,336.184 L521.964,336.184 C524.344,339.924 528.9,342.644 537.264,342.644 C551.816,342.644 553.856,334.892 554.196,333.6 L571.06,333.6 L571.06,334.348 C571.06,340.808 565.892,354.884 538.76,354.884 Z" id="350€-copy-16" fill="#0A5640"></path>
        <path d="M325.716,414.884 L322.52,414.884 C294.98,414.884 292.396,401.216 292.396,396.048 L292.396,395.504 L309.056,395.504 C309.26,396.796 310.008,403.188 323.948,403.188 C338.364,403.188 339.18,399.584 339.18,397.544 C339.18,395.572 338.092,393.6 332.108,393.6 L314.224,393.6 L314.224,381.836 L331.292,381.836 C336.936,381.836 337.888,380.204 337.888,378.504 C337.888,376.668 336.8,374.084 322.928,374.084 C309.396,374.084 309.26,378.776 309.056,379.864 L292.532,379.864 L292.532,379.184 C292.532,374.56 294.572,362.524 321.432,362.524 L324.288,362.524 C351.352,362.524 354.48,370.14 354.48,375.58 L354.48,375.988 C354.48,381.292 349.652,384.012 346.388,384.76 C350.4,385.848 356.044,389.316 356.044,397.136 L356.044,397.612 C356.044,406.112 350.672,414.884 325.716,414.884 Z M391.608,414.884 L388.412,414.884 C362.98,414.884 359.716,403.596 359.716,398.632 L359.716,398.156 L376.444,398.156 C376.648,398.904 377.736,403.188 389.976,403.188 C401.604,403.188 403.032,399.788 403.032,397 L403.032,396.592 C403.032,393.804 401.604,390.404 389.976,390.404 C377.804,390.404 376.376,394.008 376.24,394.484 L360.804,394.484 L360.804,363.408 L416.088,363.408 L416.088,375.172 L376.376,375.172 L376.376,384.216 C377.328,383.468 382.02,379.524 394.396,379.524 L395.008,379.524 C415.068,379.524 419.624,387.276 419.624,396.524 L419.624,396.932 C419.624,405.16 414.728,414.884 391.608,414.884 Z M494.152,387.548 L494.152,389.588 C494.152,398.428 490.072,414.884 460.016,414.884 L457.024,414.884 C427.104,414.884 422.888,398.496 422.888,389.588 L422.888,387.548 C422.888,378.572 427.104,362.524 457.024,362.524 L460.016,362.524 C490.004,362.524 494.152,378.572 494.152,387.548 Z M477.56,388.976 L477.56,388.024 C477.56,382.312 474.024,374.832 458.52,374.832 C442.744,374.832 439.48,382.312 439.48,388.024 L439.48,388.84 C439.48,394.552 443.084,402.508 458.52,402.508 C473.956,402.508 477.56,394.756 477.56,388.976 Z M538.76,414.884 L535.836,414.884 C515.096,414.884 506.868,405.024 504.352,396.184 L496.736,396.184 L496.736,390.268 L503.4,390.268 L503.4,386.528 L496.736,386.528 L496.736,380.544 L504.42,380.544 C506.936,371.84 514.892,362.524 535.836,362.524 L538.76,362.524 C565.756,362.524 570.992,376.396 570.992,382.448 L570.992,383.196 L554.128,383.196 C553.856,381.836 551.476,374.696 537.128,374.696 C528.492,374.696 524.004,377.076 521.76,380.544 L542.636,380.544 L542.636,386.528 L519.992,386.528 C519.924,387.004 519.924,387.412 519.924,387.888 L519.924,388.704 C519.924,389.248 519.924,389.724 519.992,390.268 L542.636,390.268 L542.636,396.184 L521.964,396.184 C524.344,399.924 528.9,402.644 537.264,402.644 C551.816,402.644 553.856,394.892 554.196,393.6 L571.06,393.6 L571.06,394.348 C571.06,400.808 565.892,414.884 538.76,414.884 Z" id="350€-copy-19" fill="#0A5640"></path>
        <path d="M325.716,474.884 L322.52,474.884 C294.98,474.884 292.396,461.216 292.396,456.048 L292.396,455.504 L309.056,455.504 C309.26,456.796 310.008,463.188 323.948,463.188 C338.364,463.188 339.18,459.584 339.18,457.544 C339.18,455.572 338.092,453.6 332.108,453.6 L314.224,453.6 L314.224,441.836 L331.292,441.836 C336.936,441.836 337.888,440.204 337.888,438.504 C337.888,436.668 336.8,434.084 322.928,434.084 C309.396,434.084 309.26,438.776 309.056,439.864 L292.532,439.864 L292.532,439.184 C292.532,434.56 294.572,422.524 321.432,422.524 L324.288,422.524 C351.352,422.524 354.48,430.14 354.48,435.58 L354.48,435.988 C354.48,441.292 349.652,444.012 346.388,444.76 C350.4,445.848 356.044,449.316 356.044,457.136 L356.044,457.612 C356.044,466.112 350.672,474.884 325.716,474.884 Z M391.608,474.884 L388.412,474.884 C362.98,474.884 359.716,463.596 359.716,458.632 L359.716,458.156 L376.444,458.156 C376.648,458.904 377.736,463.188 389.976,463.188 C401.604,463.188 403.032,459.788 403.032,457 L403.032,456.592 C403.032,453.804 401.604,450.404 389.976,450.404 C377.804,450.404 376.376,454.008 376.24,454.484 L360.804,454.484 L360.804,423.408 L416.088,423.408 L416.088,435.172 L376.376,435.172 L376.376,444.216 C377.328,443.468 382.02,439.524 394.396,439.524 L395.008,439.524 C415.068,439.524 419.624,447.276 419.624,456.524 L419.624,456.932 C419.624,465.16 414.728,474.884 391.608,474.884 Z M494.152,447.548 L494.152,449.588 C494.152,458.428 490.072,474.884 460.016,474.884 L457.024,474.884 C427.104,474.884 422.888,458.496 422.888,449.588 L422.888,447.548 C422.888,438.572 427.104,422.524 457.024,422.524 L460.016,422.524 C490.004,422.524 494.152,438.572 494.152,447.548 Z M477.56,448.976 L477.56,448.024 C477.56,442.312 474.024,434.832 458.52,434.832 C442.744,434.832 439.48,442.312 439.48,448.024 L439.48,448.84 C439.48,454.552 443.084,462.508 458.52,462.508 C473.956,462.508 477.56,454.756 477.56,448.976 Z M538.76,474.884 L535.836,474.884 C515.096,474.884 506.868,465.024 504.352,456.184 L496.736,456.184 L496.736,450.268 L503.4,450.268 L503.4,446.528 L496.736,446.528 L496.736,440.544 L504.42,440.544 C506.936,431.84 514.892,422.524 535.836,422.524 L538.76,422.524 C565.756,422.524 570.992,436.396 570.992,442.448 L570.992,443.196 L554.128,443.196 C553.856,441.836 551.476,434.696 537.128,434.696 C528.492,434.696 524.004,437.076 521.76,440.544 L542.636,440.544 L542.636,446.528 L519.992,446.528 C519.924,447.004 519.924,447.412 519.924,447.888 L519.924,448.704 C519.924,449.248 519.924,449.724 519.992,450.268 L542.636,450.268 L542.636,456.184 L521.964,456.184 C524.344,459.924 528.9,462.644 537.264,462.644 C551.816,462.644 553.856,454.892 554.196,453.6 L571.06,453.6 L571.06,454.348 C571.06,460.808 565.892,474.884 538.76,474.884 Z" id="350€-copy-22" fill="#0A5640"></path>
        <path d="M325.716,534.884 L322.52,534.884 C294.98,534.884 292.396,521.216 292.396,516.048 L292.396,515.504 L309.056,515.504 C309.26,516.796 310.008,523.188 323.948,523.188 C338.364,523.188 339.18,519.584 339.18,517.544 C339.18,515.572 338.092,513.6 332.108,513.6 L314.224,513.6 L314.224,501.836 L331.292,501.836 C336.936,501.836 337.888,500.204 337.888,498.504 C337.888,496.668 336.8,494.084 322.928,494.084 C309.396,494.084 309.26,498.776 309.056,499.864 L292.532,499.864 L292.532,499.184 C292.532,494.56 294.572,482.524 321.432,482.524 L324.288,482.524 C351.352,482.524 354.48,490.14 354.48,495.58 L354.48,495.988 C354.48,501.292 349.652,504.012 346.388,504.76 C350.4,505.848 356.044,509.316 356.044,517.136 L356.044,517.612 C356.044,526.112 350.672,534.884 325.716,534.884 Z M391.608,534.884 L388.412,534.884 C362.98,534.884 359.716,523.596 359.716,518.632 L359.716,518.156 L376.444,518.156 C376.648,518.904 377.736,523.188 389.976,523.188 C401.604,523.188 403.032,519.788 403.032,517 L403.032,516.592 C403.032,513.804 401.604,510.404 389.976,510.404 C377.804,510.404 376.376,514.008 376.24,514.484 L360.804,514.484 L360.804,483.408 L416.088,483.408 L416.088,495.172 L376.376,495.172 L376.376,504.216 C377.328,503.468 382.02,499.524 394.396,499.524 L395.008,499.524 C415.068,499.524 419.624,507.276 419.624,516.524 L419.624,516.932 C419.624,525.16 414.728,534.884 391.608,534.884 Z M494.152,507.548 L494.152,509.588 C494.152,518.428 490.072,534.884 460.016,534.884 L457.024,534.884 C427.104,534.884 422.888,518.496 422.888,509.588 L422.888,507.548 C422.888,498.572 427.104,482.524 457.024,482.524 L460.016,482.524 C490.004,482.524 494.152,498.572 494.152,507.548 Z M477.56,508.976 L477.56,508.024 C477.56,502.312 474.024,494.832 458.52,494.832 C442.744,494.832 439.48,502.312 439.48,508.024 L439.48,508.84 C439.48,514.552 443.084,522.508 458.52,522.508 C473.956,522.508 477.56,514.756 477.56,508.976 Z M538.76,534.884 L535.836,534.884 C515.096,534.884 506.868,525.024 504.352,516.184 L496.736,516.184 L496.736,510.268 L503.4,510.268 L503.4,506.528 L496.736,506.528 L496.736,500.544 L504.42,500.544 C506.936,491.84 514.892,482.524 535.836,482.524 L538.76,482.524 C565.756,482.524 570.992,496.396 570.992,502.448 L570.992,503.196 L554.128,503.196 C553.856,501.836 551.476,494.696 537.128,494.696 C528.492,494.696 524.004,497.076 521.76,500.544 L542.636,500.544 L542.636,506.528 L519.992,506.528 C519.924,507.004 519.924,507.412 519.924,507.888 L519.924,508.704 C519.924,509.248 519.924,509.724 519.992,510.268 L542.636,510.268 L542.636,516.184 L521.964,516.184 C524.344,519.924 528.9,522.644 537.264,522.644 C551.816,522.644 553.856,514.892 554.196,513.6 L571.06,513.6 L571.06,514.348 C571.06,520.808 565.892,534.884 538.76,534.884 Z" id="350€-copy-25" fill="#0A5640"></path>
        <path d="M325.716,594.884 L322.52,594.884 C294.98,594.884 292.396,581.216 292.396,576.048 L292.396,575.504 L309.056,575.504 C309.26,576.796 310.008,583.188 323.948,583.188 C338.364,583.188 339.18,579.584 339.18,577.544 C339.18,575.572 338.092,573.6 332.108,573.6 L314.224,573.6 L314.224,561.836 L331.292,561.836 C336.936,561.836 337.888,560.204 337.888,558.504 C337.888,556.668 336.8,554.084 322.928,554.084 C309.396,554.084 309.26,558.776 309.056,559.864 L292.532,559.864 L292.532,559.184 C292.532,554.56 294.572,542.524 321.432,542.524 L324.288,542.524 C351.352,542.524 354.48,550.14 354.48,555.58 L354.48,555.988 C354.48,561.292 349.652,564.012 346.388,564.76 C350.4,565.848 356.044,569.316 356.044,577.136 L356.044,577.612 C356.044,586.112 350.672,594.884 325.716,594.884 Z M391.608,594.884 L388.412,594.884 C362.98,594.884 359.716,583.596 359.716,578.632 L359.716,578.156 L376.444,578.156 C376.648,578.904 377.736,583.188 389.976,583.188 C401.604,583.188 403.032,579.788 403.032,577 L403.032,576.592 C403.032,573.804 401.604,570.404 389.976,570.404 C377.804,570.404 376.376,574.008 376.24,574.484 L360.804,574.484 L360.804,543.408 L416.088,543.408 L416.088,555.172 L376.376,555.172 L376.376,564.216 C377.328,563.468 382.02,559.524 394.396,559.524 L395.008,559.524 C415.068,559.524 419.624,567.276 419.624,576.524 L419.624,576.932 C419.624,585.16 414.728,594.884 391.608,594.884 Z M494.152,567.548 L494.152,569.588 C494.152,578.428 490.072,594.884 460.016,594.884 L457.024,594.884 C427.104,594.884 422.888,578.496 422.888,569.588 L422.888,567.548 C422.888,558.572 427.104,542.524 457.024,542.524 L460.016,542.524 C490.004,542.524 494.152,558.572 494.152,567.548 Z M477.56,568.976 L477.56,568.024 C477.56,562.312 474.024,554.832 458.52,554.832 C442.744,554.832 439.48,562.312 439.48,568.024 L439.48,568.84 C439.48,574.552 443.084,582.508 458.52,582.508 C473.956,582.508 477.56,574.756 477.56,568.976 Z M538.76,594.884 L535.836,594.884 C515.096,594.884 506.868,585.024 504.352,576.184 L496.736,576.184 L496.736,570.268 L503.4,570.268 L503.4,566.528 L496.736,566.528 L496.736,560.544 L504.42,560.544 C506.936,551.84 514.892,542.524 535.836,542.524 L538.76,542.524 C565.756,542.524 570.992,556.396 570.992,562.448 L570.992,563.196 L554.128,563.196 C553.856,561.836 551.476,554.696 537.128,554.696 C528.492,554.696 524.004,557.076 521.76,560.544 L542.636,560.544 L542.636,566.528 L519.992,566.528 C519.924,567.004 519.924,567.412 519.924,567.888 L519.924,568.704 C519.924,569.248 519.924,569.724 519.992,570.268 L542.636,570.268 L542.636,576.184 L521.964,576.184 C524.344,579.924 528.9,582.644 537.264,582.644 C551.816,582.644 553.856,574.892 554.196,573.6 L571.06,573.6 L571.06,574.348 C571.06,580.808 565.892,594.884 538.76,594.884 Z" id="350€-copy-28" fill="#0A5640"></path>
        <path d="M607.716,53.884 L604.52,53.884 C576.98,53.884 574.396,40.216 574.396,35.048 L574.396,34.504 L591.056,34.504 C591.26,35.796 592.008,42.188 605.948,42.188 C620.364,42.188 621.18,38.584 621.18,36.544 C621.18,34.572 620.092,32.6 614.108,32.6 L596.224,32.6 L596.224,20.836 L613.292,20.836 C618.936,20.836 619.888,19.204 619.888,17.504 C619.888,15.668 618.8,13.084 604.928,13.084 C591.396,13.084 591.26,17.776 591.056,18.864 L574.532,18.864 L574.532,18.184 C574.532,13.56 576.572,1.524 603.432,1.524 L606.288,1.524 C633.352,1.524 636.48,9.14 636.48,14.58 L636.48,14.988 C636.48,20.292 631.652,23.012 628.388,23.76 C632.4,24.848 638.044,28.316 638.044,36.136 L638.044,36.612 C638.044,45.112 632.672,53.884 607.716,53.884 Z M673.608,53.884 L670.412,53.884 C644.98,53.884 641.716,42.596 641.716,37.632 L641.716,37.156 L658.444,37.156 C658.648,37.904 659.736,42.188 671.976,42.188 C683.604,42.188 685.032,38.788 685.032,36 L685.032,35.592 C685.032,32.804 683.604,29.404 671.976,29.404 C659.804,29.404 658.376,33.008 658.24,33.484 L642.804,33.484 L642.804,2.408 L698.088,2.408 L698.088,14.172 L658.376,14.172 L658.376,23.216 C659.328,22.468 664.02,18.524 676.396,18.524 L677.008,18.524 C697.068,18.524 701.624,26.276 701.624,35.524 L701.624,35.932 C701.624,44.16 696.728,53.884 673.608,53.884 Z M776.152,26.548 L776.152,28.588 C776.152,37.428 772.072,53.884 742.016,53.884 L739.024,53.884 C709.104,53.884 704.888,37.496 704.888,28.588 L704.888,26.548 C704.888,17.572 709.104,1.524 739.024,1.524 L742.016,1.524 C772.004,1.524 776.152,17.572 776.152,26.548 Z M759.56,27.976 L759.56,27.024 C759.56,21.312 756.024,13.832 740.52,13.832 C724.744,13.832 721.48,21.312 721.48,27.024 L721.48,27.84 C721.48,33.552 725.084,41.508 740.52,41.508 C755.956,41.508 759.56,33.756 759.56,27.976 Z M820.76,53.884 L817.836,53.884 C797.096,53.884 788.868,44.024 786.352,35.184 L778.736,35.184 L778.736,29.268 L785.4,29.268 L785.4,25.528 L778.736,25.528 L778.736,19.544 L786.42,19.544 C788.936,10.84 796.892,1.524 817.836,1.524 L820.76,1.524 C847.756,1.524 852.992,15.396 852.992,21.448 L852.992,22.196 L836.128,22.196 C835.856,20.836 833.476,13.696 819.128,13.696 C810.492,13.696 806.004,16.076 803.76,19.544 L824.636,19.544 L824.636,25.528 L801.992,25.528 C801.924,26.004 801.924,26.412 801.924,26.888 L801.924,27.704 C801.924,28.248 801.924,28.724 801.992,29.268 L824.636,29.268 L824.636,35.184 L803.964,35.184 C806.344,38.924 810.9,41.644 819.264,41.644 C833.816,41.644 835.856,33.892 836.196,32.6 L853.06,32.6 L853.06,33.348 C853.06,39.808 847.892,53.884 820.76,53.884 Z" id="350€-copy-2" fill="#0A5640"></path>
        <path d="M607.716,113.884 L604.52,113.884 C576.98,113.884 574.396,100.216 574.396,95.048 L574.396,94.504 L591.056,94.504 C591.26,95.796 592.008,102.188 605.948,102.188 C620.364,102.188 621.18,98.584 621.18,96.544 C621.18,94.572 620.092,92.6 614.108,92.6 L596.224,92.6 L596.224,80.836 L613.292,80.836 C618.936,80.836 619.888,79.204 619.888,77.504 C619.888,75.668 618.8,73.084 604.928,73.084 C591.396,73.084 591.26,77.776 591.056,78.864 L574.532,78.864 L574.532,78.184 C574.532,73.56 576.572,61.524 603.432,61.524 L606.288,61.524 C633.352,61.524 636.48,69.14 636.48,74.58 L636.48,74.988 C636.48,80.292 631.652,83.012 628.388,83.76 C632.4,84.848 638.044,88.316 638.044,96.136 L638.044,96.612 C638.044,105.112 632.672,113.884 607.716,113.884 Z M673.608,113.884 L670.412,113.884 C644.98,113.884 641.716,102.596 641.716,97.632 L641.716,97.156 L658.444,97.156 C658.648,97.904 659.736,102.188 671.976,102.188 C683.604,102.188 685.032,98.788 685.032,96 L685.032,95.592 C685.032,92.804 683.604,89.404 671.976,89.404 C659.804,89.404 658.376,93.008 658.24,93.484 L642.804,93.484 L642.804,62.408 L698.088,62.408 L698.088,74.172 L658.376,74.172 L658.376,83.216 C659.328,82.468 664.02,78.524 676.396,78.524 L677.008,78.524 C697.068,78.524 701.624,86.276 701.624,95.524 L701.624,95.932 C701.624,104.16 696.728,113.884 673.608,113.884 Z M776.152,86.548 L776.152,88.588 C776.152,97.428 772.072,113.884 742.016,113.884 L739.024,113.884 C709.104,113.884 704.888,97.496 704.888,88.588 L704.888,86.548 C704.888,77.572 709.104,61.524 739.024,61.524 L742.016,61.524 C772.004,61.524 776.152,77.572 776.152,86.548 Z M759.56,87.976 L759.56,87.024 C759.56,81.312 756.024,73.832 740.52,73.832 C724.744,73.832 721.48,81.312 721.48,87.024 L721.48,87.84 C721.48,93.552 725.084,101.508 740.52,101.508 C755.956,101.508 759.56,93.756 759.56,87.976 Z M820.76,113.884 L817.836,113.884 C797.096,113.884 788.868,104.024 786.352,95.184 L778.736,95.184 L778.736,89.268 L785.4,89.268 L785.4,85.528 L778.736,85.528 L778.736,79.544 L786.42,79.544 C788.936,70.84 796.892,61.524 817.836,61.524 L820.76,61.524 C847.756,61.524 852.992,75.396 852.992,81.448 L852.992,82.196 L836.128,82.196 C835.856,80.836 833.476,73.696 819.128,73.696 C810.492,73.696 806.004,76.076 803.76,79.544 L824.636,79.544 L824.636,85.528 L801.992,85.528 C801.924,86.004 801.924,86.412 801.924,86.888 L801.924,87.704 C801.924,88.248 801.924,88.724 801.992,89.268 L824.636,89.268 L824.636,95.184 L803.964,95.184 C806.344,98.924 810.9,101.644 819.264,101.644 C833.816,101.644 835.856,93.892 836.196,92.6 L853.06,92.6 L853.06,93.348 C853.06,99.808 847.892,113.884 820.76,113.884 Z" id="350€-copy-5" fill="#0A5640"></path>
        <path d="M607.716,173.884 L604.52,173.884 C576.98,173.884 574.396,160.216 574.396,155.048 L574.396,154.504 L591.056,154.504 C591.26,155.796 592.008,162.188 605.948,162.188 C620.364,162.188 621.18,158.584 621.18,156.544 C621.18,154.572 620.092,152.6 614.108,152.6 L596.224,152.6 L596.224,140.836 L613.292,140.836 C618.936,140.836 619.888,139.204 619.888,137.504 C619.888,135.668 618.8,133.084 604.928,133.084 C591.396,133.084 591.26,137.776 591.056,138.864 L574.532,138.864 L574.532,138.184 C574.532,133.56 576.572,121.524 603.432,121.524 L606.288,121.524 C633.352,121.524 636.48,129.14 636.48,134.58 L636.48,134.988 C636.48,140.292 631.652,143.012 628.388,143.76 C632.4,144.848 638.044,148.316 638.044,156.136 L638.044,156.612 C638.044,165.112 632.672,173.884 607.716,173.884 Z M673.608,173.884 L670.412,173.884 C644.98,173.884 641.716,162.596 641.716,157.632 L641.716,157.156 L658.444,157.156 C658.648,157.904 659.736,162.188 671.976,162.188 C683.604,162.188 685.032,158.788 685.032,156 L685.032,155.592 C685.032,152.804 683.604,149.404 671.976,149.404 C659.804,149.404 658.376,153.008 658.24,153.484 L642.804,153.484 L642.804,122.408 L698.088,122.408 L698.088,134.172 L658.376,134.172 L658.376,143.216 C659.328,142.468 664.02,138.524 676.396,138.524 L677.008,138.524 C697.068,138.524 701.624,146.276 701.624,155.524 L701.624,155.932 C701.624,164.16 696.728,173.884 673.608,173.884 Z M776.152,146.548 L776.152,148.588 C776.152,157.428 772.072,173.884 742.016,173.884 L739.024,173.884 C709.104,173.884 704.888,157.496 704.888,148.588 L704.888,146.548 C704.888,137.572 709.104,121.524 739.024,121.524 L742.016,121.524 C772.004,121.524 776.152,137.572 776.152,146.548 Z M759.56,147.976 L759.56,147.024 C759.56,141.312 756.024,133.832 740.52,133.832 C724.744,133.832 721.48,141.312 721.48,147.024 L721.48,147.84 C721.48,153.552 725.084,161.508 740.52,161.508 C755.956,161.508 759.56,153.756 759.56,147.976 Z M820.76,173.884 L817.836,173.884 C797.096,173.884 788.868,164.024 786.352,155.184 L778.736,155.184 L778.736,149.268 L785.4,149.268 L785.4,145.528 L778.736,145.528 L778.736,139.544 L786.42,139.544 C788.936,130.84 796.892,121.524 817.836,121.524 L820.76,121.524 C847.756,121.524 852.992,135.396 852.992,141.448 L852.992,142.196 L836.128,142.196 C835.856,140.836 833.476,133.696 819.128,133.696 C810.492,133.696 806.004,136.076 803.76,139.544 L824.636,139.544 L824.636,145.528 L801.992,145.528 C801.924,146.004 801.924,146.412 801.924,146.888 L801.924,147.704 C801.924,148.248 801.924,148.724 801.992,149.268 L824.636,149.268 L824.636,155.184 L803.964,155.184 C806.344,158.924 810.9,161.644 819.264,161.644 C833.816,161.644 835.856,153.892 836.196,152.6 L853.06,152.6 L853.06,153.348 C853.06,159.808 847.892,173.884 820.76,173.884 Z" id="350€-copy-8" fill="#0A5640"></path>
        <path d="M607.716,233.884 L604.52,233.884 C576.98,233.884 574.396,220.216 574.396,215.048 L574.396,214.504 L591.056,214.504 C591.26,215.796 592.008,222.188 605.948,222.188 C620.364,222.188 621.18,218.584 621.18,216.544 C621.18,214.572 620.092,212.6 614.108,212.6 L596.224,212.6 L596.224,200.836 L613.292,200.836 C618.936,200.836 619.888,199.204 619.888,197.504 C619.888,195.668 618.8,193.084 604.928,193.084 C591.396,193.084 591.26,197.776 591.056,198.864 L574.532,198.864 L574.532,198.184 C574.532,193.56 576.572,181.524 603.432,181.524 L606.288,181.524 C633.352,181.524 636.48,189.14 636.48,194.58 L636.48,194.988 C636.48,200.292 631.652,203.012 628.388,203.76 C632.4,204.848 638.044,208.316 638.044,216.136 L638.044,216.612 C638.044,225.112 632.672,233.884 607.716,233.884 Z M673.608,233.884 L670.412,233.884 C644.98,233.884 641.716,222.596 641.716,217.632 L641.716,217.156 L658.444,217.156 C658.648,217.904 659.736,222.188 671.976,222.188 C683.604,222.188 685.032,218.788 685.032,216 L685.032,215.592 C685.032,212.804 683.604,209.404 671.976,209.404 C659.804,209.404 658.376,213.008 658.24,213.484 L642.804,213.484 L642.804,182.408 L698.088,182.408 L698.088,194.172 L658.376,194.172 L658.376,203.216 C659.328,202.468 664.02,198.524 676.396,198.524 L677.008,198.524 C697.068,198.524 701.624,206.276 701.624,215.524 L701.624,215.932 C701.624,224.16 696.728,233.884 673.608,233.884 Z M776.152,206.548 L776.152,208.588 C776.152,217.428 772.072,233.884 742.016,233.884 L739.024,233.884 C709.104,233.884 704.888,217.496 704.888,208.588 L704.888,206.548 C704.888,197.572 709.104,181.524 739.024,181.524 L742.016,181.524 C772.004,181.524 776.152,197.572 776.152,206.548 Z M759.56,207.976 L759.56,207.024 C759.56,201.312 756.024,193.832 740.52,193.832 C724.744,193.832 721.48,201.312 721.48,207.024 L721.48,207.84 C721.48,213.552 725.084,221.508 740.52,221.508 C755.956,221.508 759.56,213.756 759.56,207.976 Z M820.76,233.884 L817.836,233.884 C797.096,233.884 788.868,224.024 786.352,215.184 L778.736,215.184 L778.736,209.268 L785.4,209.268 L785.4,205.528 L778.736,205.528 L778.736,199.544 L786.42,199.544 C788.936,190.84 796.892,181.524 817.836,181.524 L820.76,181.524 C847.756,181.524 852.992,195.396 852.992,201.448 L852.992,202.196 L836.128,202.196 C835.856,200.836 833.476,193.696 819.128,193.696 C810.492,193.696 806.004,196.076 803.76,199.544 L824.636,199.544 L824.636,205.528 L801.992,205.528 C801.924,206.004 801.924,206.412 801.924,206.888 L801.924,207.704 C801.924,208.248 801.924,208.724 801.992,209.268 L824.636,209.268 L824.636,215.184 L803.964,215.184 C806.344,218.924 810.9,221.644 819.264,221.644 C833.816,221.644 835.856,213.892 836.196,212.6 L853.06,212.6 L853.06,213.348 C853.06,219.808 847.892,233.884 820.76,233.884 Z" id="350€-copy-11" fill="#0A5640"></path>
        <path d="M607.716,294.884 L604.52,294.884 C576.98,294.884 574.396,281.216 574.396,276.048 L574.396,275.504 L591.056,275.504 C591.26,276.796 592.008,283.188 605.948,283.188 C620.364,283.188 621.18,279.584 621.18,277.544 C621.18,275.572 620.092,273.6 614.108,273.6 L596.224,273.6 L596.224,261.836 L613.292,261.836 C618.936,261.836 619.888,260.204 619.888,258.504 C619.888,256.668 618.8,254.084 604.928,254.084 C591.396,254.084 591.26,258.776 591.056,259.864 L574.532,259.864 L574.532,259.184 C574.532,254.56 576.572,242.524 603.432,242.524 L606.288,242.524 C633.352,242.524 636.48,250.14 636.48,255.58 L636.48,255.988 C636.48,261.292 631.652,264.012 628.388,264.76 C632.4,265.848 638.044,269.316 638.044,277.136 L638.044,277.612 C638.044,286.112 632.672,294.884 607.716,294.884 Z M673.608,294.884 L670.412,294.884 C644.98,294.884 641.716,283.596 641.716,278.632 L641.716,278.156 L658.444,278.156 C658.648,278.904 659.736,283.188 671.976,283.188 C683.604,283.188 685.032,279.788 685.032,277 L685.032,276.592 C685.032,273.804 683.604,270.404 671.976,270.404 C659.804,270.404 658.376,274.008 658.24,274.484 L642.804,274.484 L642.804,243.408 L698.088,243.408 L698.088,255.172 L658.376,255.172 L658.376,264.216 C659.328,263.468 664.02,259.524 676.396,259.524 L677.008,259.524 C697.068,259.524 701.624,267.276 701.624,276.524 L701.624,276.932 C701.624,285.16 696.728,294.884 673.608,294.884 Z M776.152,267.548 L776.152,269.588 C776.152,278.428 772.072,294.884 742.016,294.884 L739.024,294.884 C709.104,294.884 704.888,278.496 704.888,269.588 L704.888,267.548 C704.888,258.572 709.104,242.524 739.024,242.524 L742.016,242.524 C772.004,242.524 776.152,258.572 776.152,267.548 Z M759.56,268.976 L759.56,268.024 C759.56,262.312 756.024,254.832 740.52,254.832 C724.744,254.832 721.48,262.312 721.48,268.024 L721.48,268.84 C721.48,274.552 725.084,282.508 740.52,282.508 C755.956,282.508 759.56,274.756 759.56,268.976 Z M820.76,294.884 L817.836,294.884 C797.096,294.884 788.868,285.024 786.352,276.184 L778.736,276.184 L778.736,270.268 L785.4,270.268 L785.4,266.528 L778.736,266.528 L778.736,260.544 L786.42,260.544 C788.936,251.84 796.892,242.524 817.836,242.524 L820.76,242.524 C847.756,242.524 852.992,256.396 852.992,262.448 L852.992,263.196 L836.128,263.196 C835.856,261.836 833.476,254.696 819.128,254.696 C810.492,254.696 806.004,257.076 803.76,260.544 L824.636,260.544 L824.636,266.528 L801.992,266.528 C801.924,267.004 801.924,267.412 801.924,267.888 L801.924,268.704 C801.924,269.248 801.924,269.724 801.992,270.268 L824.636,270.268 L824.636,276.184 L803.964,276.184 C806.344,279.924 810.9,282.644 819.264,282.644 C833.816,282.644 835.856,274.892 836.196,273.6 L853.06,273.6 L853.06,274.348 C853.06,280.808 847.892,294.884 820.76,294.884 Z" id="350€-copy-14" fill="#0A5640"></path>
        <path d="M607.716,354.884 L604.52,354.884 C576.98,354.884 574.396,341.216 574.396,336.048 L574.396,335.504 L591.056,335.504 C591.26,336.796 592.008,343.188 605.948,343.188 C620.364,343.188 621.18,339.584 621.18,337.544 C621.18,335.572 620.092,333.6 614.108,333.6 L596.224,333.6 L596.224,321.836 L613.292,321.836 C618.936,321.836 619.888,320.204 619.888,318.504 C619.888,316.668 618.8,314.084 604.928,314.084 C591.396,314.084 591.26,318.776 591.056,319.864 L574.532,319.864 L574.532,319.184 C574.532,314.56 576.572,302.524 603.432,302.524 L606.288,302.524 C633.352,302.524 636.48,310.14 636.48,315.58 L636.48,315.988 C636.48,321.292 631.652,324.012 628.388,324.76 C632.4,325.848 638.044,329.316 638.044,337.136 L638.044,337.612 C638.044,346.112 632.672,354.884 607.716,354.884 Z M673.608,354.884 L670.412,354.884 C644.98,354.884 641.716,343.596 641.716,338.632 L641.716,338.156 L658.444,338.156 C658.648,338.904 659.736,343.188 671.976,343.188 C683.604,343.188 685.032,339.788 685.032,337 L685.032,336.592 C685.032,333.804 683.604,330.404 671.976,330.404 C659.804,330.404 658.376,334.008 658.24,334.484 L642.804,334.484 L642.804,303.408 L698.088,303.408 L698.088,315.172 L658.376,315.172 L658.376,324.216 C659.328,323.468 664.02,319.524 676.396,319.524 L677.008,319.524 C697.068,319.524 701.624,327.276 701.624,336.524 L701.624,336.932 C701.624,345.16 696.728,354.884 673.608,354.884 Z M776.152,327.548 L776.152,329.588 C776.152,338.428 772.072,354.884 742.016,354.884 L739.024,354.884 C709.104,354.884 704.888,338.496 704.888,329.588 L704.888,327.548 C704.888,318.572 709.104,302.524 739.024,302.524 L742.016,302.524 C772.004,302.524 776.152,318.572 776.152,327.548 Z M759.56,328.976 L759.56,328.024 C759.56,322.312 756.024,314.832 740.52,314.832 C724.744,314.832 721.48,322.312 721.48,328.024 L721.48,328.84 C721.48,334.552 725.084,342.508 740.52,342.508 C755.956,342.508 759.56,334.756 759.56,328.976 Z M820.76,354.884 L817.836,354.884 C797.096,354.884 788.868,345.024 786.352,336.184 L778.736,336.184 L778.736,330.268 L785.4,330.268 L785.4,326.528 L778.736,326.528 L778.736,320.544 L786.42,320.544 C788.936,311.84 796.892,302.524 817.836,302.524 L820.76,302.524 C847.756,302.524 852.992,316.396 852.992,322.448 L852.992,323.196 L836.128,323.196 C835.856,321.836 833.476,314.696 819.128,314.696 C810.492,314.696 806.004,317.076 803.76,320.544 L824.636,320.544 L824.636,326.528 L801.992,326.528 C801.924,327.004 801.924,327.412 801.924,327.888 L801.924,328.704 C801.924,329.248 801.924,329.724 801.992,330.268 L824.636,330.268 L824.636,336.184 L803.964,336.184 C806.344,339.924 810.9,342.644 819.264,342.644 C833.816,342.644 835.856,334.892 836.196,333.6 L853.06,333.6 L853.06,334.348 C853.06,340.808 847.892,354.884 820.76,354.884 Z" id="350€-copy-17" fill="#0A5640"></path>
        <path d="M607.716,414.884 L604.52,414.884 C576.98,414.884 574.396,401.216 574.396,396.048 L574.396,395.504 L591.056,395.504 C591.26,396.796 592.008,403.188 605.948,403.188 C620.364,403.188 621.18,399.584 621.18,397.544 C621.18,395.572 620.092,393.6 614.108,393.6 L596.224,393.6 L596.224,381.836 L613.292,381.836 C618.936,381.836 619.888,380.204 619.888,378.504 C619.888,376.668 618.8,374.084 604.928,374.084 C591.396,374.084 591.26,378.776 591.056,379.864 L574.532,379.864 L574.532,379.184 C574.532,374.56 576.572,362.524 603.432,362.524 L606.288,362.524 C633.352,362.524 636.48,370.14 636.48,375.58 L636.48,375.988 C636.48,381.292 631.652,384.012 628.388,384.76 C632.4,385.848 638.044,389.316 638.044,397.136 L638.044,397.612 C638.044,406.112 632.672,414.884 607.716,414.884 Z M673.608,414.884 L670.412,414.884 C644.98,414.884 641.716,403.596 641.716,398.632 L641.716,398.156 L658.444,398.156 C658.648,398.904 659.736,403.188 671.976,403.188 C683.604,403.188 685.032,399.788 685.032,397 L685.032,396.592 C685.032,393.804 683.604,390.404 671.976,390.404 C659.804,390.404 658.376,394.008 658.24,394.484 L642.804,394.484 L642.804,363.408 L698.088,363.408 L698.088,375.172 L658.376,375.172 L658.376,384.216 C659.328,383.468 664.02,379.524 676.396,379.524 L677.008,379.524 C697.068,379.524 701.624,387.276 701.624,396.524 L701.624,396.932 C701.624,405.16 696.728,414.884 673.608,414.884 Z M776.152,387.548 L776.152,389.588 C776.152,398.428 772.072,414.884 742.016,414.884 L739.024,414.884 C709.104,414.884 704.888,398.496 704.888,389.588 L704.888,387.548 C704.888,378.572 709.104,362.524 739.024,362.524 L742.016,362.524 C772.004,362.524 776.152,378.572 776.152,387.548 Z M759.56,388.976 L759.56,388.024 C759.56,382.312 756.024,374.832 740.52,374.832 C724.744,374.832 721.48,382.312 721.48,388.024 L721.48,388.84 C721.48,394.552 725.084,402.508 740.52,402.508 C755.956,402.508 759.56,394.756 759.56,388.976 Z M820.76,414.884 L817.836,414.884 C797.096,414.884 788.868,405.024 786.352,396.184 L778.736,396.184 L778.736,390.268 L785.4,390.268 L785.4,386.528 L778.736,386.528 L778.736,380.544 L786.42,380.544 C788.936,371.84 796.892,362.524 817.836,362.524 L820.76,362.524 C847.756,362.524 852.992,376.396 852.992,382.448 L852.992,383.196 L836.128,383.196 C835.856,381.836 833.476,374.696 819.128,374.696 C810.492,374.696 806.004,377.076 803.76,380.544 L824.636,380.544 L824.636,386.528 L801.992,386.528 C801.924,387.004 801.924,387.412 801.924,387.888 L801.924,388.704 C801.924,389.248 801.924,389.724 801.992,390.268 L824.636,390.268 L824.636,396.184 L803.964,396.184 C806.344,399.924 810.9,402.644 819.264,402.644 C833.816,402.644 835.856,394.892 836.196,393.6 L853.06,393.6 L853.06,394.348 C853.06,400.808 847.892,414.884 820.76,414.884 Z" id="350€-copy-20" fill="#0A5640"></path>
        <path d="M607.716,474.884 L604.52,474.884 C576.98,474.884 574.396,461.216 574.396,456.048 L574.396,455.504 L591.056,455.504 C591.26,456.796 592.008,463.188 605.948,463.188 C620.364,463.188 621.18,459.584 621.18,457.544 C621.18,455.572 620.092,453.6 614.108,453.6 L596.224,453.6 L596.224,441.836 L613.292,441.836 C618.936,441.836 619.888,440.204 619.888,438.504 C619.888,436.668 618.8,434.084 604.928,434.084 C591.396,434.084 591.26,438.776 591.056,439.864 L574.532,439.864 L574.532,439.184 C574.532,434.56 576.572,422.524 603.432,422.524 L606.288,422.524 C633.352,422.524 636.48,430.14 636.48,435.58 L636.48,435.988 C636.48,441.292 631.652,444.012 628.388,444.76 C632.4,445.848 638.044,449.316 638.044,457.136 L638.044,457.612 C638.044,466.112 632.672,474.884 607.716,474.884 Z M673.608,474.884 L670.412,474.884 C644.98,474.884 641.716,463.596 641.716,458.632 L641.716,458.156 L658.444,458.156 C658.648,458.904 659.736,463.188 671.976,463.188 C683.604,463.188 685.032,459.788 685.032,457 L685.032,456.592 C685.032,453.804 683.604,450.404 671.976,450.404 C659.804,450.404 658.376,454.008 658.24,454.484 L642.804,454.484 L642.804,423.408 L698.088,423.408 L698.088,435.172 L658.376,435.172 L658.376,444.216 C659.328,443.468 664.02,439.524 676.396,439.524 L677.008,439.524 C697.068,439.524 701.624,447.276 701.624,456.524 L701.624,456.932 C701.624,465.16 696.728,474.884 673.608,474.884 Z M776.152,447.548 L776.152,449.588 C776.152,458.428 772.072,474.884 742.016,474.884 L739.024,474.884 C709.104,474.884 704.888,458.496 704.888,449.588 L704.888,447.548 C704.888,438.572 709.104,422.524 739.024,422.524 L742.016,422.524 C772.004,422.524 776.152,438.572 776.152,447.548 Z M759.56,448.976 L759.56,448.024 C759.56,442.312 756.024,434.832 740.52,434.832 C724.744,434.832 721.48,442.312 721.48,448.024 L721.48,448.84 C721.48,454.552 725.084,462.508 740.52,462.508 C755.956,462.508 759.56,454.756 759.56,448.976 Z M820.76,474.884 L817.836,474.884 C797.096,474.884 788.868,465.024 786.352,456.184 L778.736,456.184 L778.736,450.268 L785.4,450.268 L785.4,446.528 L778.736,446.528 L778.736,440.544 L786.42,440.544 C788.936,431.84 796.892,422.524 817.836,422.524 L820.76,422.524 C847.756,422.524 852.992,436.396 852.992,442.448 L852.992,443.196 L836.128,443.196 C835.856,441.836 833.476,434.696 819.128,434.696 C810.492,434.696 806.004,437.076 803.76,440.544 L824.636,440.544 L824.636,446.528 L801.992,446.528 C801.924,447.004 801.924,447.412 801.924,447.888 L801.924,448.704 C801.924,449.248 801.924,449.724 801.992,450.268 L824.636,450.268 L824.636,456.184 L803.964,456.184 C806.344,459.924 810.9,462.644 819.264,462.644 C833.816,462.644 835.856,454.892 836.196,453.6 L853.06,453.6 L853.06,454.348 C853.06,460.808 847.892,474.884 820.76,474.884 Z" id="350€-copy-23" fill="#0A5640"></path>
        <path d="M607.716,534.884 L604.52,534.884 C576.98,534.884 574.396,521.216 574.396,516.048 L574.396,515.504 L591.056,515.504 C591.26,516.796 592.008,523.188 605.948,523.188 C620.364,523.188 621.18,519.584 621.18,517.544 C621.18,515.572 620.092,513.6 614.108,513.6 L596.224,513.6 L596.224,501.836 L613.292,501.836 C618.936,501.836 619.888,500.204 619.888,498.504 C619.888,496.668 618.8,494.084 604.928,494.084 C591.396,494.084 591.26,498.776 591.056,499.864 L574.532,499.864 L574.532,499.184 C574.532,494.56 576.572,482.524 603.432,482.524 L606.288,482.524 C633.352,482.524 636.48,490.14 636.48,495.58 L636.48,495.988 C636.48,501.292 631.652,504.012 628.388,504.76 C632.4,505.848 638.044,509.316 638.044,517.136 L638.044,517.612 C638.044,526.112 632.672,534.884 607.716,534.884 Z M673.608,534.884 L670.412,534.884 C644.98,534.884 641.716,523.596 641.716,518.632 L641.716,518.156 L658.444,518.156 C658.648,518.904 659.736,523.188 671.976,523.188 C683.604,523.188 685.032,519.788 685.032,517 L685.032,516.592 C685.032,513.804 683.604,510.404 671.976,510.404 C659.804,510.404 658.376,514.008 658.24,514.484 L642.804,514.484 L642.804,483.408 L698.088,483.408 L698.088,495.172 L658.376,495.172 L658.376,504.216 C659.328,503.468 664.02,499.524 676.396,499.524 L677.008,499.524 C697.068,499.524 701.624,507.276 701.624,516.524 L701.624,516.932 C701.624,525.16 696.728,534.884 673.608,534.884 Z M776.152,507.548 L776.152,509.588 C776.152,518.428 772.072,534.884 742.016,534.884 L739.024,534.884 C709.104,534.884 704.888,518.496 704.888,509.588 L704.888,507.548 C704.888,498.572 709.104,482.524 739.024,482.524 L742.016,482.524 C772.004,482.524 776.152,498.572 776.152,507.548 Z M759.56,508.976 L759.56,508.024 C759.56,502.312 756.024,494.832 740.52,494.832 C724.744,494.832 721.48,502.312 721.48,508.024 L721.48,508.84 C721.48,514.552 725.084,522.508 740.52,522.508 C755.956,522.508 759.56,514.756 759.56,508.976 Z M820.76,534.884 L817.836,534.884 C797.096,534.884 788.868,525.024 786.352,516.184 L778.736,516.184 L778.736,510.268 L785.4,510.268 L785.4,506.528 L778.736,506.528 L778.736,500.544 L786.42,500.544 C788.936,491.84 796.892,482.524 817.836,482.524 L820.76,482.524 C847.756,482.524 852.992,496.396 852.992,502.448 L852.992,503.196 L836.128,503.196 C835.856,501.836 833.476,494.696 819.128,494.696 C810.492,494.696 806.004,497.076 803.76,500.544 L824.636,500.544 L824.636,506.528 L801.992,506.528 C801.924,507.004 801.924,507.412 801.924,507.888 L801.924,508.704 C801.924,509.248 801.924,509.724 801.992,510.268 L824.636,510.268 L824.636,516.184 L803.964,516.184 C806.344,519.924 810.9,522.644 819.264,522.644 C833.816,522.644 835.856,514.892 836.196,513.6 L853.06,513.6 L853.06,514.348 C853.06,520.808 847.892,534.884 820.76,534.884 Z" id="350€-copy-26" fill="#0A5640"></path>
        <path d="M607.716,594.884 L604.52,594.884 C576.98,594.884 574.396,581.216 574.396,576.048 L574.396,575.504 L591.056,575.504 C591.26,576.796 592.008,583.188 605.948,583.188 C620.364,583.188 621.18,579.584 621.18,577.544 C621.18,575.572 620.092,573.6 614.108,573.6 L596.224,573.6 L596.224,561.836 L613.292,561.836 C618.936,561.836 619.888,560.204 619.888,558.504 C619.888,556.668 618.8,554.084 604.928,554.084 C591.396,554.084 591.26,558.776 591.056,559.864 L574.532,559.864 L574.532,559.184 C574.532,554.56 576.572,542.524 603.432,542.524 L606.288,542.524 C633.352,542.524 636.48,550.14 636.48,555.58 L636.48,555.988 C636.48,561.292 631.652,564.012 628.388,564.76 C632.4,565.848 638.044,569.316 638.044,577.136 L638.044,577.612 C638.044,586.112 632.672,594.884 607.716,594.884 Z M673.608,594.884 L670.412,594.884 C644.98,594.884 641.716,583.596 641.716,578.632 L641.716,578.156 L658.444,578.156 C658.648,578.904 659.736,583.188 671.976,583.188 C683.604,583.188 685.032,579.788 685.032,577 L685.032,576.592 C685.032,573.804 683.604,570.404 671.976,570.404 C659.804,570.404 658.376,574.008 658.24,574.484 L642.804,574.484 L642.804,543.408 L698.088,543.408 L698.088,555.172 L658.376,555.172 L658.376,564.216 C659.328,563.468 664.02,559.524 676.396,559.524 L677.008,559.524 C697.068,559.524 701.624,567.276 701.624,576.524 L701.624,576.932 C701.624,585.16 696.728,594.884 673.608,594.884 Z M776.152,567.548 L776.152,569.588 C776.152,578.428 772.072,594.884 742.016,594.884 L739.024,594.884 C709.104,594.884 704.888,578.496 704.888,569.588 L704.888,567.548 C704.888,558.572 709.104,542.524 739.024,542.524 L742.016,542.524 C772.004,542.524 776.152,558.572 776.152,567.548 Z M759.56,568.976 L759.56,568.024 C759.56,562.312 756.024,554.832 740.52,554.832 C724.744,554.832 721.48,562.312 721.48,568.024 L721.48,568.84 C721.48,574.552 725.084,582.508 740.52,582.508 C755.956,582.508 759.56,574.756 759.56,568.976 Z M820.76,594.884 L817.836,594.884 C797.096,594.884 788.868,585.024 786.352,576.184 L778.736,576.184 L778.736,570.268 L785.4,570.268 L785.4,566.528 L778.736,566.528 L778.736,560.544 L786.42,560.544 C788.936,551.84 796.892,542.524 817.836,542.524 L820.76,542.524 C847.756,542.524 852.992,556.396 852.992,562.448 L852.992,563.196 L836.128,563.196 C835.856,561.836 833.476,554.696 819.128,554.696 C810.492,554.696 806.004,557.076 803.76,560.544 L824.636,560.544 L824.636,566.528 L801.992,566.528 C801.924,567.004 801.924,567.412 801.924,567.888 L801.924,568.704 C801.924,569.248 801.924,569.724 801.992,570.268 L824.636,570.268 L824.636,576.184 L803.964,576.184 C806.344,579.924 810.9,582.644 819.264,582.644 C833.816,582.644 835.856,574.892 836.196,573.6 L853.06,573.6 L853.06,574.348 C853.06,580.808 847.892,594.884 820.76,594.884 Z" id="350€-copy-29" fill="#0A5640"></path>
    </g>
</svg>